<?xml version="1.0" encoding="UTF-8" standalone="no"?>
<svg
   xmlns:dc="http://purl.org/dc/elements/1.1/"
   xmlns:cc="http://creativecommons.org/ns#"
   xmlns:rdf="http://www.w3.org/1999/02/22-rdf-syntax-ns#"
   xmlns:svg="http://www.w3.org/2000/svg"
   xmlns="http://www.w3.org/2000/svg"
   xmlns:sodipodi="http://sodipodi.sourceforge.net/DTD/sodipodi-0.dtd"
   xmlns:inkscape="http://www.inkscape.org/namespaces/inkscape"
   inkscape:export-ydpi="40.639999"
   inkscape:export-xdpi="40.639999"
   inkscape:export-filename="./social-share.png"
   width="640mm"
   height="320mm"
   viewBox="0 0 640 320"
   version="1.1"
   id="svg1736"
   inkscape:version="1.0 (4035a4fb49, 2020-05-01)"
   sodipodi:docname="social-share.svg">
  <defs
     id="defs1730">
    <rect
       id="rect4438"
       height="52.102767"
       width="147.00755"
       y="176.93243"
       x="208.47023" />
    <rect
       x="21.922619"
       y="41.577381"
       width="464.91071"
       height="96.005951"
       id="rect2851" />
    <rect
       id="rect2851-9"
       height="96.005951"
       width="464.91071"
       y="41.577381"
       x="21.922619" />
    <rect
       id="rect907"
       height="96.005951"
       width="464.91071"
       y="41.577381"
       x="21.922619" />
    <rect
       x="21.922619"
       y="41.577381"
       width="464.91071"
       height="96.005951"
       id="rect2851-9-5" />
    <rect
       x="21.922619"
       y="41.577381"
       width="464.91071"
       height="96.005951"
       id="rect964" />
    <rect
       id="rect2851-9-5-2"
       height="96.005951"
       width="464.91071"
       y="41.577381"
       x="21.922619" />
    <rect
       id="rect859"
       height="96.005951"
       width="464.91071"
       y="41.577381"
       x="21.922619" />
    <rect
       x="21.922619"
       y="41.577381"
       width="464.91071"
       height="96.005951"
       id="rect890" />
    <linearGradient
       id="linearGradient7947-7-1">
      <stop
         id="stop7949-0-1"
         offset="0"
         style="stop-color:#784421;stop-opacity:1;" />
      <stop
         id="stop7951-4-0"
         offset="1"
         style="stop-color:#1d130c;stop-opacity:1;" />
    </linearGradient>
    <linearGradient
       id="linearGradient8984-2-3-5">
      <stop
         id="stop8986-8-8-9"
         offset="0"
         style="stop-color:#c5c50f;stop-opacity:1;" />
      <stop
         id="stop8988-9-31-8"
         offset="1"
         style="stop-color:#808000;stop-opacity:1;" />
    </linearGradient>
    <linearGradient
       id="linearGradient13226-0">
      <stop
         id="stop13228-2"
         offset="0"
         style="stop-color:#d45500;stop-opacity:1;" />
      <stop
         id="stop13230-5"
         offset="1"
         style="stop-color:#8a3700;stop-opacity:1;" />
    </linearGradient>
    <rect
       x="21.922619"
       y="41.577381"
       width="464.91071"
       height="96.005951"
       id="rect1001" />
    <rect
       x="21.922619"
       y="41.577381"
       width="464.91071"
       height="96.005951"
       id="rect2851-9-5-0" />
    <rect
       x="21.922619"
       y="41.577381"
       width="464.91071"
       height="96.005951"
       id="rect4415" />
  </defs>
  <sodipodi:namedview
     id="base"
     pagecolor="#ffffff"
     bordercolor="#666666"
     borderopacity="1.0"
     inkscape:pageopacity="0.0"
     inkscape:pageshadow="2"
     inkscape:zoom="0.35"
     inkscape:cx="2977.035"
     inkscape:cy="523.71697"
     inkscape:document-units="mm"
     inkscape:current-layer="layer2"
     inkscape:document-rotation="0"
     showgrid="false"
     inkscape:window-width="2736"
     inkscape:window-height="1714"
     inkscape:window-x="-12"
     inkscape:window-y="-12"
     inkscape:window-maximized="1"
     borderlayer="true" />
  <metadata
     id="metadata1733">
    <rdf:RDF>
      <cc:Work
         rdf:about="">
        <dc:format>image/svg+xml</dc:format>
        <dc:type
           rdf:resource="http://purl.org/dc/dcmitype/StillImage" />
        <dc:title />
      </cc:Work>
    </rdf:RDF>
  </metadata>
  <g
     style="opacity:0.5"
     inkscape:label="Layer 1"
     inkscape:groupmode="layer"
     id="layer1" />
  <g
     inkscape:label="Texte"
     id="layer2"
     inkscape:groupmode="layer">
    <rect
       style="fill:#ffffff;stroke:#ff6600;stroke-width:1.0897;stroke-linecap:round;stroke-linejoin:round;stroke-miterlimit:4;stroke-dasharray:none"
       id="rect7610"
       width="1010.9398"
       height="494.30316"
       x="-61.187294"
       y="-74.794434" />
    <path
       style="color:#000000;display:inline;overflow:visible;visibility:visible;fill:#fdddca;fill-opacity:1;fill-rule:nonzero;stroke:#000000;stroke-width:2.40426;marker:none;enable-background:accumulate"
       d="m 26.959827,173.48411 c -1.370685,1.05733 -0.972998,3.87582 0.870831,6.34673 -4.797008,0.76862 -10.897791,1.15772 -10.502976,7.39615 0.395059,6.23848 7.261159,6.33777 12.749483,5.99042 5.488312,-0.34721 9.752401,-3.6593 9.515697,-7.3996 -0.150081,-2.36818 -2.072628,-4.33847 -4.850914,-5.37799 -0.597981,-1.35289 -1.482351,-2.93882 -2.615562,-4.41076 -1.193894,-1.64135 -3.021449,-3.75043 -5.166559,-2.54495 z"
       id="path10976"
       sodipodi:nodetypes="cczssccc"
       inkscape:connector-curvature="0" />
    <path
       style="display:inline;fill:#fdddca;fill-opacity:1;fill-rule:evenodd;stroke:#000000;stroke-width:2.73987;stroke-linecap:round;stroke-linejoin:round;stroke-miterlimit:4;stroke-dasharray:none;stroke-opacity:1"
       d="m 59.347761,134.46487 c 0,18.98245 15.406129,34.38845 34.388536,34.38845 18.982443,0 34.388443,-15.406 34.388443,-34.38845 0,-18.98243 -15.406,-34.38848 -34.388443,-34.38848 -18.982407,0 -34.388536,15.40605 -34.388536,34.38848 z"
       id="path4862"
       inkscape:connector-curvature="0" />
    <path
       style="display:inline;fill:#ececec;fill-opacity:1;fill-rule:evenodd;stroke:#4d4d4d;stroke-width:2.73987;stroke-linecap:round;stroke-linejoin:round;stroke-miterlimit:4;stroke-dasharray:none;stroke-opacity:1"
       d="m 101.69554,92.757075 c -4.030583,1.796972 -8.347483,-0.11803 -12.540234,0.09129 -3.752508,1.437331 -7.41756,2.590657 -11.506229,2.750141 -1.814785,4.177698 -7.232326,3.355181 -9.698093,5.924494 -0.715441,2.55095 -3.270933,4.9952 -5.012794,6.73834 -5.112409,0.81604 -3.086912,7.32379 -6.126566,10.05499 -2.472309,3.88392 1.990322,8.04335 -0.511189,12.03168 1.14729,4.24174 -3.406682,8.98496 0.08274,12.72478 2.106209,3.72935 0.455288,7.98637 -1.911403,11.02185 -0.620692,4.23798 3.697747,7.17506 -0.368284,10.72996 -2.012063,3.70979 3.960665,6.74243 0.931259,9.90101 -3.797931,3.66149 0.371936,3.87464 1.373693,7.16816 3.473327,2.61236 7.655363,3.35319 11.819035,3.99384 3.101993,1.64362 6.665046,5.13415 10.279769,2.71729 3.987915,-1.36989 7.995902,-2.23256 12.162533,-1.0123 4.75223,-0.26486 9.591753,-1.13026 14.254063,0.24943 4.54452,0.98128 8.37981,-2.7821 12.92093,-2.21713 3.26294,-2.96747 3.34783,-4.56521 7.53827,-4.94627 3.55246,-3.63216 3.49441,-5.90536 4.38954,-9.83953 0.87422,-4.18224 -2.96207,-8.05047 -0.83469,-12.35171 0.53494,-4.17785 4.22767,-6.86067 2.83017,-11.19452 2.93533,-3.71191 -1.47762,-7.92959 0.90019,-11.92907 2.37507,-2.95424 -0.8583,-6.01844 1.39762,-9.10977 -2.75233,-2.15597 -6.67649,-5.15889 -6.08975,-9.19312 1.97955,-4.67817 -3.88205,-6.16125 -4.95625,-9.95532 -1.55917,-4.12806 -7.21378,-4.73711 -9.72925,-8.347607 -4.17923,-1.138931 -5.25716,-5.483775 -9.73979,-5.576624 l -0.94176,-0.318799 z m -8.216683,12.812345 c 3.35157,2.40015 7.406823,2.85401 10.867053,2.93182 2.30081,4.54362 7.17829,-1.26529 10.31165,2.83976 2.05782,3.00912 3.30009,6.21556 3.69608,9.58647 3.14122,2.67146 4.76704,8.0273 2.10901,11.2563 1.52121,3.49451 1.56128,6.63285 -0.0563,10.00608 1.94304,3.84477 -0.68972,8.03493 1.56685,11.90464 -0.43198,3.47917 -6.99193,8.52344 -10.20453,10.02574 -4.57622,-1.06166 -8.47574,1.65567 -12.961623,1.52555 -4.37275,0.42333 -8.61806,-0.6103 -12.917112,-1.00195 -4.435172,0.63131 -2.830621,-2.79756 -3.684007,-6.90177 -3.285655,-1.95016 -6.724947,-3.61102 -6.492581,-8.11705 -2.247648,-3.94541 2.222287,-8.29147 -1.68787,-11.96805 -2.489501,-3.99319 4.160781,-5.76502 1.815387,-10.08869 -1.074312,-3.92667 0.07303,-7.57376 0.928262,-11.36151 0.784071,-3.58783 3.251178,-5.12209 6.5875,-6.03385 2.191502,-4.12728 7.393621,-0.83055 10.122311,-4.60349 z"
       id="path2065"
       sodipodi:nodetypes="cccccccccccccccccccccccccccccccccccccccccccccc"
       inkscape:connector-curvature="0" />
    <path
       style="display:inline;fill:#ff0e00;fill-opacity:1;fill-rule:evenodd;stroke:#aa0000;stroke-width:2.30409;stroke-linecap:round;stroke-linejoin:round;stroke-miterlimit:4;stroke-dasharray:none;stroke-opacity:1"
       d="m 93.710087,161.83634 c -5.419477,0.3983 -12.492405,-1.65928 -16.46487,2.58465 -3.698803,3.95154 -6.67884,4.26924 -11.273452,7.38381 -4.090811,2.77306 -9.143192,4.37779 -11.495635,9.58239 -1.98133,4.38346 -4.943638,7.49757 -6.944713,12.08136 -1.851734,4.24178 -9.443459,4.39469 -10.652644,10.02198 -1.359087,6.32487 -6.415805,10.99845 -11.411481,14.85138 -3.971525,10.36502 -4.151652,14.61431 -11.530398,22.05791 7.454024,1.56352 16.11755,-0.59721 23.59555,0.77974 3.967273,0.73047 5.233552,6.38631 10.798452,6.15853 4.833838,-0.19795 9.4046,-2.34328 13.949042,-1.36619 6.786654,1.45923 13.282971,5.24398 20.401806,5.03918 5.120966,-0.14723 9.897583,-1.53742 14.856053,-4.98353 4.670093,-3.24563 -1.14936,-5.57199 4.904583,-6.70513 5.44835,-1.01981 6.53311,-9.13158 7.79626,-14.34186 1.27749,-5.26959 1.63637,-10.44976 3.43428,-15.65238 2.06455,-5.97403 4.63725,-12.59166 3.56496,-18.92842 -0.84949,-5.02024 0.73697,-9.55066 1.30359,-14.93229 0.54619,-5.18729 0.21822,-5.69444 2.12106,-10.61456 2.41227,-6.23783 -8.19425,-4.2492 -11.78617,-4.17465 -4.33609,0.09 -8.65547,0.85914 -13.011753,0.72715"
       id="path4561"
       sodipodi:nodetypes="cssssssssssssssssssss"
       inkscape:connector-curvature="0" />
    <path
       style="display:inline;fill:#ffffff;fill-opacity:1;fill-rule:evenodd;stroke:#b3b3b3;stroke-width:2.30409;stroke-linecap:round;stroke-linejoin:round;stroke-miterlimit:4;stroke-opacity:1"
       d="m 13.700433,237.61646 c 2.200905,-0.24539 3.702696,-1.76238 5.367201,-2.40144 2.493796,-0.95746 5.480239,4.13426 9.312606,2.86744 3.61809,-1.19599 7.630552,-1.14587 11.256387,-0.275 3.854794,0.92583 6.562383,4.70149 10.440382,6.15001 3.327796,1.24301 6.432195,-1.89322 9.923009,-2.22796 4.043881,-0.38775 7.624779,0.75527 10.967022,2.34993 3.152091,1.50389 5.99203,4.19648 9.825326,3.49413 3.601953,-0.65999 6.689836,-2.4474 10.490131,-2.43552 4.18304,0.0121 6.92409,-3.3877 9.572433,-6.28791 2.78449,-3.04923 7.77096,-4.17389 11.38991,-2.53987 5.00444,2.25964 -0.87911,5.83267 -3.98638,6.98514 -4.07692,1.51213 -5.33869,6.73952 -9.239983,8.97163 -4.07098,2.32916 -8.951669,2.03583 -13.428935,2.77633 -3.999028,0.66138 -8.068679,0.0941 -11.944041,-1.27179 -4.118313,-1.45129 -7.968442,-3.82236 -12.54314,-3.66376 -3.749344,0.12979 -7.440316,0.46449 -11.128047,1.01919 -3.878359,0.58343 -6.424733,-1.22828 -9.127214,-4.03079 -2.176453,-2.25689 -6.785387,-0.26444 -10.179342,-0.51157 -4.550932,-0.33139 -9.023377,-3.5536 -13.52016,-1.6429 -3.565238,1.51488 -9.7537839,-0.10709 -5.828704,-4.45006 0.83822,-0.92749 1.358569,-2.76114 2.381539,-2.87523 z"
       id="path4563"
       inkscape:connector-curvature="0" />
    <path
       style="display:inline;overflow:visible;visibility:visible;fill:none;stroke:#000000;stroke-width:2.36755;stroke-linecap:round;stroke-linejoin:round;stroke-miterlimit:4;stroke-dashoffset:0;stroke-opacity:1;marker:none"
       d="m 130.17194,255.54543 -18.67641,-1.9833 -3.14029,-42.64488"
       id="path4565"
       inkscape:connector-curvature="0" />
    <path
       style="display:inline;overflow:visible;visibility:visible;fill:none;stroke:#000000;stroke-width:2.36755;stroke-linecap:round;stroke-linejoin:round;stroke-miterlimit:4;stroke-dasharray:none;stroke-dashoffset:0;stroke-opacity:1;marker:none"
       d="M 85.619514,212.33357 72.2459,254.00914 c 0,0 -14.875036,1.32225 -14.875036,1.32225"
       id="path4571"
       sodipodi:nodetypes="ccc"
       inkscape:connector-curvature="0" />
    <path
       style="display:inline;overflow:visible;visibility:visible;fill:#ff0e00;fill-opacity:1;fill-rule:nonzero;stroke:#000000;stroke-width:2.18583;stroke-linecap:round;stroke-linejoin:round;stroke-miterlimit:4;stroke-dasharray:none;stroke-dashoffset:0;stroke-opacity:1;marker:none"
       d="m 114.9957,206.45345 c -0.71422,0.12573 -1.38054,0.26648 -2.12997,0.38045 -1.66779,0.25349 -3.42084,0.47419 -5.25696,0.65257 -1.83612,0.17846 -3.75084,0.31961 -5.74644,0.39871 -1.995533,0.0791 -4.071593,0.0981 -6.217683,0.0543 -2.14603,-0.0434 -4.36512,-0.15412 -6.65276,-0.34435 -2.287635,-0.19023 -4.640277,-0.45509 -7.060632,-0.81575 -2.420344,-0.36059 -4.906279,-0.81376 -7.450373,-1.36862 -0.564674,-0.12331 -1.160713,-0.31069 -1.731149,-0.4441 l -4.640605,42.10093 9.843183,0.44417 8.828032,-27.95248 c 2.315906,-4.63181 10.336924,-5.62437 13.314617,0.66161 l 5.6013,27.72592 9.83419,-0.34436 z"
       id="path5424"
       inkscape:connector-curvature="0" />
    <path
       style="display:inline;overflow:visible;visibility:visible;fill:#ff0e00;fill-opacity:1;fill-rule:nonzero;stroke:#aa0000;stroke-width:2.18583;stroke-linecap:round;stroke-linejoin:round;stroke-miterlimit:4;stroke-dasharray:none;stroke-dashoffset:0;stroke-opacity:1;marker:none"
       d="m 149.04458,161.09562 c 0,0 -12.49719,5.12064 -14.52638,5.12064 -1.67334,0 -19.54971,-1.56469 -19.54971,-1.56469 -0.35814,-0.98699 -0.5891,-1.57706 -0.5891,-1.57706 l -17.212023,0.27176 c -8.935,19.77425 -5.96068,44.6236 -0.63445,57.69053 7.436953,-0.28635 14.687653,-2.24783 21.662253,-6.08175 l -3.21755,-6.86549 c 6.86367,-6.99829 5.56866,-19.46126 3.22136,-29.23918 0,0 14.07824,1.58782 16.51339,0.77612 1.72182,-0.57396 17.77111,-6.33517 17.77111,-6.33517 l -3.43882,-12.19583 z"
       id="path4573"
       sodipodi:nodetypes="cscccccccsccc"
       inkscape:connector-curvature="0" />
    <path
       style="display:inline;overflow:visible;visibility:visible;fill:#ffffff;fill-opacity:1;fill-rule:evenodd;stroke:#b3b3b3;stroke-width:3.07212;stroke-linecap:round;stroke-linejoin:round;stroke-miterlimit:4;stroke-dasharray:none;stroke-dashoffset:0;stroke-opacity:1;marker:none;enable-background:accumulate"
       d="m 118.594,212.42642 c -3.57318,2.15354 -8.66738,4.67541 -13.2693,4.72221 -0.39911,0.23808 -0.77247,0.43412 -1.13297,0.58914 -0.9708,0.16791 -1.93467,0.30988 -2.90037,0.426 -1.21442,-0.19874 -2.323573,-0.87667 -3.580213,-1.74023 -0.13912,-0.46073 -0.27459,-0.93621 -0.40767,-1.41397 l -5.66483,5.93675 c 0.16711,0.62017 0.32813,1.22998 0.49873,1.81272 -0.33909,3.19354 1.70543,5.70729 4.54094,2.59223 0.24986,-0.0365 0.5034,-0.0779 0.76136,-0.11762 2.05966,0.9704 3.736573,0.0121 5.474453,-1.01514 1.93091,-0.4097 3.9304,-0.8864 5.92766,-1.40488 0.0202,0.008 0.0414,0.0121 0.0636,0.0202 0.0121,-0.0121 0.0163,-0.0244 0.0244,-0.0365 3.19936,-0.83274 6.37561,-1.7743 9.18161,-2.75538 2.2197,-0.14155 4.26495,-0.5871 5.53789,-2.57406 -3.19538,-1.47782 -0.1448,-4.81786 -2.73725,-4.74035 l -0.0904,-0.23566 c -0.25714,0.11601 -0.51321,0.23161 -0.77039,0.34436 -0.003,5.3e-4 -0.004,-4.9e-4 -0.0121,0 l -1.45024,-0.40787 z"
       id="path5453"
       inkscape:connector-curvature="0" />
    <path
       style="display:inline;overflow:visible;visibility:visible;fill:#ff0e00;fill-opacity:1;fill-rule:nonzero;stroke:#aa0000;stroke-width:2.18583;stroke-linecap:round;stroke-linejoin:round;stroke-miterlimit:4;stroke-dasharray:none;stroke-dashoffset:0;stroke-opacity:1;marker:none"
       d="m 88.384622,163.49143 -14.474746,0.22673 c -4.656868,0.19429 -16.63181,8.37178 -16.63181,8.37178 l -16.139658,5.78705 1.194738,12.63424 18.721513,-5.39901 7.908097,-2.51789 c -1.974069,8.75009 -3.216097,18.1622 2.880212,25.28536 l -3.162876,7.07564 c 7.650371,3.47099 15.215375,5.52909 22.613955,6.00924 4.85245,-14.23171 6.85212,-38.62535 -2.909425,-57.47297 z"
       id="path5434"
       sodipodi:nodetypes="ccccccccccc"
       inkscape:connector-curvature="0" />
    <path
       style="display:inline;overflow:visible;visibility:visible;fill:#ffffff;fill-opacity:1;fill-rule:evenodd;stroke:#b3b3b3;stroke-width:3.07212;stroke-linecap:round;stroke-linejoin:round;stroke-miterlimit:4;stroke-dasharray:none;stroke-dashoffset:0;stroke-opacity:1;marker:none;enable-background:accumulate"
       d="m 95.789657,161.85998 -8.075776,0.0814 c 1.181556,2.29141 2.185586,4.67063 3.036376,7.09689 -0.18576,1.2725 -0.0467,2.76504 0.5801,4.22369 0.69941,1.58026 1.324,3.1388 1.81271,4.62248 0.44235,2.22996 0.78856,4.47472 1.02418,6.71624 -0.0669,0.52169 -0.18738,1.01214 -0.3626,1.46831 0.2247,0.61064 0.42888,1.20439 0.62542,1.78554 0.30097,4.68381 0.20971,9.30349 -0.19913,13.68622 -0.15454,0.28392 -0.31962,0.56408 -0.49874,0.85196 0.68911,3.09463 -1.17308,6.86024 -1.21453,9.98824 -0.39101,1.73503 -0.82653,3.3868 -1.29615,4.93974 -1.256592,0.86355 -2.365747,1.54164 -3.58016,1.74019 -0.965652,-0.116 -1.929563,-0.25797 -2.900335,-0.42597 -0.360581,-0.15494 -0.734057,-0.35125 -1.133011,-0.58914 -4.601915,-0.0466 -9.696066,-2.56867 -13.269251,-4.72221 l -1.450195,0.40787 c -0.0032,-4.8e-4 -0.0042,5.3e-4 -0.01213,0 -0.257145,-0.11276 -0.513204,-0.22835 -0.770393,-0.34435 l -0.09044,0.23565 c -2.592281,-0.0775 0.457842,3.26254 -2.737275,4.74034 1.27294,1.98697 3.318181,2.43249 5.537915,2.57408 2.805999,0.98106 5.982257,1.92264 9.181605,2.75538 0.01213,0.0121 0.02026,0.0244 0.02438,0.0365 0.02026,-0.008 0.04137,-0.0121 0.06363,-0.0202 1.997265,0.51849 3.9968,0.99518 5.927706,1.40489 1.737796,1.02857 3.414798,1.98553 5.474444,1.01513 0.25756,0.0405 0.51114,0.0819 0.76135,0.11763 2.83553,3.11506 4.87967,0.6013 4.54091,-2.59223 0.43148,-1.47465 0.85449,-3.07249 1.25985,-4.77657 1.64114,-2.97639 2.810573,-6.02006 1.77653,-9.0184 0.435083,-2.71712 0.805003,-5.56015 1.078543,-8.47456 0.19184,-0.62231 0.27825,-1.32583 0.1809,-2.1481 0.21009,-2.74435 0.33259,-5.53395 0.34434,-8.32957 0.34679,-1.17611 0.48012,-2.59705 -0.0819,-4.59529 -0.0904,-2.18032 -0.25593,-4.35045 -0.50752,-6.48054 0.0466,-2.59573 -0.24053,-5.10198 -1.241763,-7.26912 -0.003,-0.008 -0.004,-0.0163 -0.0121,-0.0284 -0.88806,-3.83399 -2.1327,-7.44506 -3.80636,-10.67666 z"
       id="path5448"
       inkscape:connector-curvature="0" />
    <path
       style="display:inline;fill:#ff0e00;fill-opacity:1;fill-rule:evenodd;stroke:#aa0000;stroke-width:2.37285;stroke-linecap:round;stroke-linejoin:round;stroke-miterlimit:4;stroke-dasharray:none;stroke-opacity:1"
       d="M 129.43159,109.71285 C 126.75232,98.200567 114.29519,73.755283 94.254787,66.014901 64.097932,54.367117 33.066405,75.557573 39.860762,100.27088 49.869381,99.802331 56.973494,85.590338 57.934651,90.091784 c 0.961157,4.501405 -1.892375,12.416066 -1.820548,22.606776 27.795843,-8.73768 43.436934,-13.312057 73.317487,-2.98571 z"
       id="path4605"
       sodipodi:nodetypes="cscscc"
       inkscape:connector-curvature="0" />
    <path
       style="display:inline;fill:#ffffff;fill-opacity:1;fill-rule:evenodd;stroke:#b3b3b3;stroke-width:2.37285;stroke-linecap:round;stroke-linejoin:round;stroke-miterlimit:4;stroke-dasharray:none;stroke-opacity:1"
       d="m 49.5765,105.69726 c -0.737624,-1.41113 -0.509595,-3.09649 -0.694313,-4.63367 -0.0953,-1.800468 -0.532549,-3.573272 -1.108947,-5.27465 -0.484785,-1.521568 -2.4008,-1.154423 -3.238651,-2.299718 -1.895498,-1.944456 -4.905106,-1.996738 -7.361512,-1.293054 -1.237732,0.418783 -2.535335,0.59777 -3.835691,0.627868 -1.333664,0.454359 -1.545103,2.080449 -2.279076,3.110036 -0.87788,1.136608 -2.061916,1.946313 -2.809313,3.221648 -1.12843,1.48604 -2.681563,3.14621 -2.18822,5.17974 0.532676,2.21466 1.934029,4.07909 2.736959,6.19301 0.613874,1.52757 1.769595,2.82188 3.314487,3.44338 2.194879,1.0375 4.597093,1.89437 7.0623,1.62493 2.905846,-0.0645 5.779092,-1.23794 7.922735,-3.19193 1.297476,-1.31037 2.51104,-2.99357 2.361287,-4.93378 0.01213,-0.59228 0.0032,-1.19011 0.118029,-1.77381 z"
       id="path4607"
       inkscape:connector-curvature="0" />
    <path
       style="display:inline;fill:#ffffff;fill-opacity:1;fill-rule:evenodd;stroke:#b3b3b3;stroke-width:2.37285;stroke-linecap:round;stroke-linejoin:round;stroke-miterlimit:4;stroke-opacity:1"
       d="m 124.01721,101.87633 c -3.01183,-0.81497 -5.84957,-3.779556 -9.12173,-2.891007 -2.94767,0.80046 -5.82594,1.467917 -8.62735,-0.395048 -3.12617,-2.079076 -6.583613,0.858082 -10.010003,0.60921 -3.21456,-0.233622 -6.451147,-0.300552 -9.596099,-1.126193 -3.623514,-0.951417 -5.914156,3.295428 -9.528267,3.202628 -2.8964,-0.0742 -6.423962,-0.41886 -8.532398,2.12417 -2.061789,2.48691 -5.20358,3.90494 -8.313414,4.12453 -2.994348,0.21131 -6.818241,-0.0779 -8.714108,1.73796 -1.694319,1.62289 -1.047507,6.06045 1.261509,6.92832 2.556663,0.96096 9.023378,2.57144 11.540656,0.93889 6.601619,-2.51628 8.468233,1.33934 13.815161,-3.88165 4.731132,-1.57957 11.083271,-0.44673 16.57231,-0.83639 6.562683,-0.69367 10.338343,-2.57176 16.983083,-1.04901 1.66908,1.80639 5.14691,2.77927 7.53227,1.41401 3.00931,-1.72234 5.19217,1.49975 8.58281,1.27262 3.36653,-0.22552 5.79308,-2.4449 5.60728,-5.0342 -0.25148,-3.50092 -7.31876,-6.35185 -9.45171,-7.13867 z"
       id="path4609"
       sodipodi:nodetypes="csssssssssccccsssc"
       inkscape:connector-curvature="0" />
    <g
       id="g5374"
       transform="matrix(0.29003882,0,0,0.29003882,-747.71032,-55.379101)"
       style="stroke-linecap:round;stroke-linejoin:round">
      <path
         id="path5352"
         d="m 2862.3859,1016.4268 -18.955,60.9859 -93.127,6.593 c -4.1207,-44.5031 56.041,-37.9101 56.041,-37.9101 l 8.2413,-71.69959 c 21.4275,42.03079 47.7997,42.03079 47.7997,42.03079 z"
         style="display:inline;overflow:visible;visibility:visible;fill:#000000;fill-opacity:1;fill-rule:nonzero;stroke:#000000;stroke-width:8.45647;stroke-linecap:round;stroke-linejoin:round;stroke-miterlimit:4;stroke-dashoffset:0;stroke-opacity:1;marker:none"
         inkscape:connector-curvature="0" />
      <path
         id="path5354"
         d="m 2810.5513,962.50673 c 7.8878,-2.91024 11.6165,7.37036 18.6605,8.72768 2.8511,5.78455 8.2855,8.58592 12.0169,13.37462 3.3136,5.94492 9.2924,9.71832 15.7791,11.28512 6.3537,3.5734 9.3877,10.93935 15.9187,14.36945 3.0606,5.2491 2.5753,16.3808 -5.7747,15.9504 -7.6681,2.5753 -11.8727,-3.7696 -17.3855,-6.9329 -7.8464,1.2484 -9.1714,-8.5457 -15.4444,-10.7188 -9.4972,-2.8323 -17.1013,-9.93775 -22.0317,-18.3713 -4.6416,-5.29381 -10.0824,-10.91183 -9.1363,-18.63996 -1.2773,-7.02077 1.0495,-7.45097 7.3974,-9.04431 z"
         style="display:inline;fill:#ffffff;fill-opacity:1;stroke:#b3b3b3;stroke-width:9.47211;stroke-linecap:round;stroke-linejoin:round;stroke-miterlimit:4;stroke-opacity:1"
         inkscape:connector-curvature="0" />
    </g>
    <g
       id="g5370"
       transform="matrix(0.29003882,0,0,0.29003882,-748.87045,-55.379101)"
       style="stroke-linecap:round;stroke-linejoin:round">
      <path
         sodipodi:nodetypes="cccccc"
         id="path5362"
         d="m 2934.3047,1010.11 14.5677,62.18 93.2459,4.9613 c 7.2768,-44.0972 -54.0256,-33.5602 -54.0256,-33.5602 l -3.1189,-72.10417 c -24.3637,40.39957 -50.6691,38.52307 -50.6691,38.52307 z"
         style="display:inline;overflow:visible;visibility:visible;fill:#000000;fill-opacity:1;fill-rule:nonzero;stroke:#000000;stroke-width:8.45647;stroke-linecap:round;stroke-linejoin:round;stroke-miterlimit:4;stroke-dashoffset:0;stroke-opacity:1;marker:none"
         inkscape:connector-curvature="0" />
      <path
         id="path5364"
         d="m 2986.7323,960.86531 c -7.8878,-2.91024 -11.6166,7.37036 -18.6605,8.72768 -2.8511,5.78455 -8.2855,8.58592 -12.017,13.37462 -3.3135,5.94493 -9.2923,9.71833 -15.7791,11.28513 -6.3537,3.5734 -9.3876,10.93916 -15.9186,14.36936 -3.0607,5.2491 -2.5753,16.3808 5.7747,15.9504 7.668,2.5753 11.8726,-3.7696 17.3854,-6.933 7.8464,1.2485 9.1715,-8.5456 15.4445,-10.7188 9.4971,-2.8322 17.1013,-9.93756 22.0316,-18.37116 4.6416,-5.29377 10.0825,-10.91179 9.1363,-18.63992 1.2774,-7.02077 -1.0495,-7.45097 -7.3973,-9.04431 z"
         style="display:inline;fill:#ffffff;fill-opacity:1;stroke:#b3b3b3;stroke-width:9.47211;stroke-linecap:round;stroke-linejoin:round;stroke-miterlimit:4;stroke-opacity:1"
         inkscape:connector-curvature="0" />
    </g>
    <path
       style="display:inline;fill:#ffffff;fill-opacity:1;stroke:#b3b3b3;stroke-width:2.74729;stroke-linecap:round;stroke-linejoin:round;stroke-miterlimit:4;stroke-opacity:1"
       d="m 36.396067,178.85489 c -0.689606,1.88478 -0.183334,4.46426 0.139528,6.30519 0.339896,1.73915 0.06892,3.53389 0.486315,5.31416 0.365044,0.89322 0.822442,1.80395 1.671079,2.35379 1.620823,-0.0365 3.83776,-2.27664 4.101322,-3.67496 1.140387,-2.12709 0.961158,-3.0038 0.324076,-4.82365 0.02438,-3.19193 -0.781031,-4.10205 -2.237094,-6.70485 -1.148661,0.0799 -3.877757,0.24458 -4.485183,1.23032 z"
       id="path5415"
       sodipodi:nodetypes="cccccccc"
       inkscape:connector-curvature="0" />
    <ellipse
       ry="6.8807082"
       rx="4.1115499"
       cy="129.16599"
       cx="109.45332"
       id="path4852"
       style="display:inline;fill:#000000;fill-opacity:1;fill-rule:evenodd;stroke:none;stroke-width:0.34195" />
    <path
       style="display:inline;fill:#ececec;fill-opacity:1;fill-rule:evenodd;stroke:#4d4d4d;stroke-width:2.50737;stroke-linecap:round;stroke-linejoin:round;stroke-miterlimit:4;stroke-dasharray:none;stroke-opacity:1"
       d="m 105.3391,139.36333 c -1.47947,0.0121 -2.96406,0.47819 -4.42556,1.46235 -2.684233,-0.7313 -5.237703,-2.51197 -7.887853,0.0812 -2.752701,-1.05181 -4.866176,-0.70855 -6.055719,2.7703 -1.752119,0.0751 -3.335183,-0.56594 -4.209949,2.0229 -0.75888,-1.94479 -1.035697,-1.2807 -1.939866,-0.16225 0.365446,1.76141 -0.963268,2.46558 -0.963268,3.86705 0,1.54688 2.513352,1.18967 0,2.70533 -0.467213,0.28148 -1.157948,3.97107 -1.279872,4.26514 -0.166292,0.40113 -0.354903,0.69735 -0.552348,0.95864 0.193065,0.92627 0.229169,1.97945 0.229169,2.90845 0,1.23494 0.374363,2.31463 0.552347,3.66391 1.250872,3.54915 2.512497,7.32496 3.280463,8.44094 1.389998,2.0199 3.963462,5.58234 4.849859,8.96899 2.689784,1.5178 5.514514,2.31995 8.224674,3.5177 2.84489,-0.29771 6.048733,-1.13435 8.649003,0.75555 3.7974,1.59881 6.23487,-3.97152 9.9424,-1.63295 2.66395,-0.15615 3.55875,-4.70084 6.45982,-4.69569 1.86443,-2.11164 3.26809,-11.45979 5.21367,-15.61448 -0.0121,-1.97614 -0.10951,-3.2866 -0.63995,-4.56574 -0.88628,-2.13785 0.32326,-2.2302 0.32326,-4.25703 0,-1.4441 -1.39368,-3.99862 -1.2866,-4.257 1.01327,-2.44415 -0.63992,-2.39904 -0.63992,-3.48525 0,-0.7685 -0.14643,-1.29488 -0.35004,-1.69793 -1.18111,-0.10991 -3.21658,-2.87875 -3.49599,-4.51702 -3.0707,-0.0466 -6.50026,-1.65993 -9.60554,-0.21132 -1.43824,-0.85427 -2.91247,-1.3019 -4.39191,-1.29172 z"
       id="path8382"
       sodipodi:nodetypes="ccccccssscscsccccccssssccccc"
       inkscape:connector-curvature="0" />
    <ellipse
       ry="7.1897521"
       rx="4.1985621"
       cy="128.98001"
       cx="91.789459"
       id="path4854"
       style="display:inline;fill:#000000;fill-opacity:1;fill-rule:evenodd;stroke:none;stroke-width:0.353223" />
    <path
       style="display:inline;fill:none;stroke:#000000;stroke-width:2.53483;stroke-linecap:round;stroke-linejoin:round;stroke-miterlimit:4;stroke-dasharray:none;stroke-opacity:1"
       d="m 113.81785,150.39962 c -6.47184,4.95642 -11.13791,6.32427 -18.651163,1.1928"
       id="path4856"
       sodipodi:nodetypes="cc"
       inkscape:connector-curvature="0" />
    <path
       style="display:inline;fill:#ececec;fill-opacity:1;fill-rule:evenodd;stroke:#000000;stroke-width:2.73987;stroke-linecap:round;stroke-linejoin:round;stroke-miterlimit:4;stroke-dasharray:none;stroke-opacity:1"
       d="m 113.3858,120.4571 c -0.0202,0.20523 -2.00477,-1.03052 -2.32496,-1.17997 -0.65204,-0.30421 -1.55832,-0.22227 -2.2811,-0.55957 -0.81056,-0.37843 -1.62951,0.55048 -2.02253,0.95056 -0.49257,0.50153 -2.08172,-0.15089 -2.49377,-0.34313 -0.67475,-0.31476 0.0523,-2.0485 0.6129,-2.61906 0.84881,-0.86409 0.14602,-1.45444 1.85158,-1.21984 0.57989,0.0799 0.8632,-0.63883 1.63879,-1.00335 0.63746,-0.29932 2.18368,0.30056 2.87743,0.39588 0.49098,0.0678 1.77766,0.76662 2.43126,1.07172 1.08372,0.50586 0.88368,0.99369 1.00508,1.85858 0.15209,1.08199 -1.27303,2.45069 -1.29468,2.64814 z"
       id="path13952"
       sodipodi:nodetypes="csssssssssss"
       inkscape:connector-curvature="0" />
    <path
       style="display:inline;fill:#ececec;fill-opacity:1;fill-rule:evenodd;stroke:#000000;stroke-width:2.73987;stroke-linecap:round;stroke-linejoin:round;stroke-miterlimit:4;stroke-dasharray:none;stroke-opacity:1"
       d="m 95.275147,119.56993 c 0.0325,0.71694 -0.83213,0.45305 -1.18391,0.36382 -0.48165,-0.11194 -0.9096,-0.44754 -1.26276,-0.81574 -0.90738,-0.19996 -1.83422,-0.22147 -2.746128,-0.37153 -1.086929,-0.0121 -2.161817,0.21658 -3.107273,0.75454 -0.649365,0.32042 -0.83594,-0.7964 -0.828965,-1.36729 0.0042,-0.89378 0.65898,-1.45221 0.890735,-2.24196 0.196716,-0.59519 0.601998,-1.12161 1.147486,-1.16885 1.049776,-0.1517 2.100331,0.15127 3.152795,0.092 0.41907,0.18982 0.76086,0.63931 1.22873,0.69841 0.60369,0.1241 1.17256,-0.31759 1.78062,-0.21295 0.50234,0.0592 1.02691,0.14278 1.47721,0.40889 0.59769,0.35328 0.74253,1.9657 0.77709,2.6938 0.16873,0.68741 -0.17441,1.33211 -0.78172,1.21652 -0.18211,0.003 -0.36423,-0.0121 -0.54383,-0.0491 z"
       id="path13954"
       sodipodi:nodetypes="cccccccccccsccc"
       inkscape:connector-curvature="0" />
    <path
       sodipodi:nodetypes="ccccsc"
       id="path5360-8"
       d="m 104.53097,129.34975 c 0,0 6.48181,8.11816 10.07366,10.42996 5.85591,4.86406 1.98886,8.96802 -2.94289,8.66606 -4.14111,-0.002 -8.27371,1.63598 -14.565313,-2.27519 -3.17031,-1.97086 -2.21285,-5.10012 -1.49226,-7.18965 0.48376,-1.40298 3.09556,-2.96621 5.223223,-1.31269"
       style="display:inline;overflow:visible;visibility:visible;fill:#fdddca;fill-opacity:1;fill-rule:evenodd;stroke:#000000;stroke-width:2.40426;stroke-linecap:round;stroke-linejoin:round;stroke-miterlimit:4;stroke-dasharray:none;stroke-dashoffset:0;stroke-opacity:1;marker:none;enable-background:accumulate"
       inkscape:connector-curvature="0" />
    <ellipse
       ry="2.0451968"
       rx="1.0225984"
       cy="126.97836"
       cx="93.375084"
       style="color:#000000;display:inline;overflow:visible;visibility:visible;fill:#ffffff;fill-opacity:1;fill-rule:nonzero;stroke:none;stroke-width:2.40426;marker:none;enable-background:accumulate"
       id="path8238" />
    <ellipse
       ry="2.0451968"
       rx="1.0225984"
       cy="128.5123"
       cx="92.608253"
       style="color:#000000;display:inline;overflow:visible;visibility:visible;fill:#ffffff;fill-opacity:1;fill-rule:nonzero;stroke:none;stroke-width:2.40426;marker:none;enable-background:accumulate"
       id="path8238-3" />
    <ellipse
       ry="2.0451968"
       rx="1.0225984"
       cy="126.96809"
       cx="110.90266"
       style="color:#000000;display:inline;overflow:visible;visibility:visible;fill:#ffffff;fill-opacity:1;fill-rule:nonzero;stroke:none;stroke-width:2.40426;marker:none;enable-background:accumulate"
       id="path8238-6" />
    <ellipse
       ry="2.0451968"
       rx="1.0225984"
       cy="128.50197"
       cx="110.1356"
       style="color:#000000;display:inline;overflow:visible;visibility:visible;fill:#ffffff;fill-opacity:1;fill-rule:nonzero;stroke:none;stroke-width:2.40426;marker:none;enable-background:accumulate"
       id="path8238-3-5" />
    <path
       style="color:#000000;display:inline;overflow:visible;visibility:visible;fill:#fdddca;fill-opacity:1;fill-rule:nonzero;stroke:#000000;stroke-width:2.40426;marker:none;enable-background:accumulate"
       d="m 157.18468,149.66658 c 1.81442,0.26364 2.91251,3.07325 2.49546,6.31416 4.82602,-1.78501 10.65785,-4.59859 13.53627,1.36802 2.8784,5.9666 -3.40587,9.62934 -8.65083,12.1629 -5.24491,2.53358 -10.9012,1.69265 -12.62699,-1.88463 -1.09265,-2.26501 -0.34233,-5.08455 1.6807,-7.48952 -0.1517,-1.56035 -0.15981,-3.48493 0.12045,-5.43364 0.24824,-2.13671 0.83855,-5.03494 3.44462,-5.03729 z"
       id="path10976-6"
       sodipodi:nodetypes="cczssccc"
       inkscape:connector-curvature="0" />
    <path
       style="display:inline;fill:#ffffff;fill-opacity:1;stroke:#b3b3b3;stroke-width:2.74729;stroke-linecap:round;stroke-linejoin:round;stroke-miterlimit:4;stroke-opacity:1"
       d="m 151.26906,159.5341 c 1.61609,1.382 2.48976,4.02746 3.14876,5.8955 0.59013,1.78299 1.77322,3.29949 2.31345,5.16063 0.12735,1.01482 0.17886,2.09372 -0.31881,3.04282 -1.51537,0.80775 -4.72473,-0.10668 -5.69473,-1.26081 -2.15796,-1.37134 -2.44834,-2.27417 -2.80632,-4.28624 -1.6824,-2.93461 -1.41153,-4.19444 -1.4209,-7.35542 1.10149,-0.52355 3.70541,-1.79077 4.77824,-1.19648 z"
       id="path5415-0"
       sodipodi:nodetypes="cccccccc"
       inkscape:connector-curvature="0" />
    <path
       style="color:#000000;display:inline;overflow:visible;visibility:visible;fill:#ffffff;fill-opacity:1;fill-rule:nonzero;stroke:#b3b3b3;stroke-width:2.40426;stroke-linecap:round;stroke-linejoin:round;stroke-miterlimit:4;stroke-dasharray:none;stroke-dashoffset:0;stroke-opacity:1;marker:none;enable-background:accumulate"
       d="m 71.76579,208.5298 c 11.64218,3.29859 32.79209,4.07471 42.88191,0.77612 l 0.77612,3.29859 c -10.08987,3.49264 -22.508143,4.65688 -44.822236,-0.38816 z"
       id="path11006"
       sodipodi:nodetypes="ccccc"
       inkscape:connector-curvature="0" />
    <rect
       style="color:#000000;display:inline;overflow:visible;visibility:visible;fill:#ececec;fill-opacity:1;fill-rule:nonzero;stroke:#4d4d4d;stroke-width:2.40426;stroke-linecap:round;stroke-linejoin:round;stroke-miterlimit:4;stroke-dasharray:none;stroke-dashoffset:0;stroke-opacity:1;marker:none;enable-background:accumulate"
       id="rect11008"
       width="10.866001"
       height="8.1495008"
       x="91.363403"
       y="209.55148" />
    <path
       style="color:#000000;display:inline;overflow:visible;visibility:visible;fill:#ffffff;fill-opacity:1;fill-rule:nonzero;stroke:#4d4d4d;stroke-width:2.40426;stroke-linecap:round;stroke-linejoin:round;stroke-miterlimit:4;stroke-dasharray:none;stroke-dashoffset:0;stroke-opacity:1;marker:none;enable-background:accumulate"
       d="m 95.244157,166.23001 0.97016,12.41826"
       id="path11010"
       inkscape:connector-curvature="0" />
    <path
       style="color:#000000;display:inline;overflow:visible;visibility:visible;fill:#ffffff;fill-opacity:1;fill-rule:nonzero;stroke:#4d4d4d;stroke-width:2.40426;stroke-linecap:round;stroke-linejoin:round;stroke-miterlimit:4;stroke-dasharray:none;stroke-dashoffset:0;stroke-opacity:1;marker:none;enable-background:accumulate"
       d="m 104.55788,166.03593 0.77607,13.77654"
       id="path11012"
       inkscape:connector-curvature="0" />
    <path
       style="color:#000000;display:inline;overflow:visible;visibility:visible;fill:#ffffff;fill-opacity:1;fill-rule:nonzero;stroke:#4d4d4d;stroke-width:2.40426;stroke-linecap:round;stroke-linejoin:round;stroke-miterlimit:4;stroke-dasharray:none;stroke-dashoffset:0;stroke-opacity:1;marker:none;enable-background:accumulate"
       d="m 112.31926,164.87173 0.58212,12.22426"
       id="path11014"
       sodipodi:nodetypes="cc"
       inkscape:connector-curvature="0" />
    <text
       transform="matrix(9.4129269,0,0,10.445937,-20.603802,-363.06272)"
       xml:space="preserve"
       id="text2849"
       style="font-style:normal;font-variant:normal;font-weight:normal;font-stretch:normal;font-size:5.99687px;line-height:1.25;font-family:'Cambria Math';-inkscape-font-specification:'Cambria Math';letter-spacing:0px;word-spacing:0px;white-space:pre;shape-inside:url(#rect2851-9-5-0);fill:#ff0e00;fill-opacity:1;stroke:none;stroke-width:0.138279;stroke-miterlimit:4;stroke-dasharray:none;stroke-opacity:1;"><tspan
         x="21.921875"
         y="46.992291"><tspan
           style="font-style:normal;font-variant:normal;font-weight:normal;font-stretch:normal;font-size:5.99687px;font-family:'Kingthings Christmas 2';-inkscape-font-specification:'Kingthings Christmas 2, ';fill:#ff0e00;fill-opacity:1;stroke:none">Le Noel des Speakers</tspan></tspan></text>
    <text
       y="0"
       x="70.702393"
       transform="matrix(2.7626007,0,0,2.7626007,-376.32129,-312.10774)"
       style="font-style:normal;font-variant:normal;font-weight:normal;font-stretch:normal;font-size:10.5833px;line-height:1.25;font-family:'Cambria Math';-inkscape-font-specification:'Cambria Math';letter-spacing:0px;word-spacing:0px;white-space:pre;shape-inside:url(#rect4438);fill:#ff0e00;fill-opacity:1;stroke:none;"
       id="text4436"
       xml:space="preserve"><tspan
         x="232.7478"
         y="186.68491"><tspan
           style="font-style:normal;font-variant:normal;font-weight:normal;font-stretch:normal;font-family:'Komika Display Tight';-inkscape-font-specification:'Komika Display Tight';text-align:center;text-anchor:middle;fill:#ff0e00;fill-opacity:1">21-21-23 décembre 2020
</tspan></tspan><tspan
         x="281.97461"
         y="200.11235"><tspan
           style="font-style:normal;font-variant:normal;font-weight:normal;font-stretch:normal;font-family:'Komika Display Tight';-inkscape-font-specification:'Komika Display Tight';text-align:center;text-anchor:middle;fill:#ff0e00;fill-opacity:1">
</tspan></tspan><tspan
         x="211.18846"
         y="213.5398"><tspan
           style="font-style:normal;font-variant:normal;font-weight:normal;font-stretch:normal;font-family:'Komika Display Tight';-inkscape-font-specification:'Komika Display Tight';text-align:center;text-anchor:middle;fill:#ff0e00;fill-opacity:1">https://rdv-speakers/noel-2020/</tspan></tspan></text>
  </g>
</svg>
