<?xml version="1.0" encoding="UTF-8" standalone="no"?>
<svg
   xmlns:dc="http://purl.org/dc/elements/1.1/"
   xmlns:cc="http://creativecommons.org/ns#"
   xmlns:rdf="http://www.w3.org/1999/02/22-rdf-syntax-ns#"
   xmlns:svg="http://www.w3.org/2000/svg"
   xmlns="http://www.w3.org/2000/svg"
   xmlns:sodipodi="http://sodipodi.sourceforge.net/DTD/sodipodi-0.dtd"
   xmlns:inkscape="http://www.inkscape.org/namespaces/inkscape"
   inkscape:version="1.0 (4035a4fb49, 2020-05-01)"
   sodipodi:docname="montpellier-tech-hub.svg"
   xml:space="preserve"
   enable-background="new 0 0 513.7 206.8"
   viewBox="0 0 513.7 206.8"
   y="0px"
   x="0px"
   id="Calque_1"
   version="1.1"><metadata
   id="metadata1041"><rdf:RDF><cc:Work
       rdf:about=""><dc:format>image/svg+xml</dc:format><dc:type
         rdf:resource="http://purl.org/dc/dcmitype/StillImage" /></cc:Work></rdf:RDF></metadata><defs
   id="defs1039">
	
	
	
	
	
	
	
	
	
</defs><sodipodi:namedview
   inkscape:current-layer="Calque_1"
   inkscape:window-maximized="1"
   inkscape:window-y="-12"
   inkscape:window-x="-12"
   inkscape:cy="-154.63809"
   inkscape:cx="224.26321"
   inkscape:zoom="0.99231069"
   showgrid="false"
   id="namedview1037"
   inkscape:window-height="1714"
   inkscape:window-width="2736"
   inkscape:pageshadow="2"
   inkscape:pageopacity="0"
   guidetolerance="10"
   gridtolerance="10"
   objecttolerance="10"
   borderopacity="1"
   bordercolor="#666666"
   pagecolor="#ffffff" />
<polygon
   fill="#ffffff"
   points="97.9,68.8 68.4,86.4 97.9,104.4 127.4,86.2 "
   id="polygon938" /><polygon
   style="fill:#333333"
   fill="#e5e4e4"
   points="127.4,86.2 97.9,104.1 97.9,137.9 127.4,120 "
   id="polygon940" /><polygon
   style="fill:#666666"
   fill="#f3f4f5"
   points="97.9,104.4 68.4,86.4 68.4,120.2 97.9,138.2 "
   id="polygon942" /><g
   style="fill:#333333"
   id="g960">
		<g
   style="fill:#333333"
   id="g958">
			<path
   style="fill:#333333"
   fill="#ffffff"
   d="m 224.5,147.8 h -16 v 44.4 H 202 v -44.4 h -16 v -5.4 h 38.5 z"
   id="path944" />
			<path
   style="fill:#333333"
   fill="#ffffff"
   d="m 260,169.2 h -21.6 v 17.6 h 25.1 v 5.4 h -31.6 v -49.8 h 31.3 v 5.4 h -24.7 v 16 H 260 Z"
   id="path946" />
			<path
   style="fill:#333333"
   fill="#ffffff"
   d="m 308.3,176.4 c -0.6,5.3 -2.6,9.3 -5.8,12.2 -3.3,2.9 -7.6,4.3 -13,4.3 -5.9,0 -10.6,-2.1 -14.1,-6.3 -3.5,-4.2 -5.3,-9.9 -5.3,-16.9 v -4.8 c 0,-4.6 0.8,-8.7 2.5,-12.2 1.7,-3.5 4,-6.2 7,-8.1 3,-1.9 6.5,-2.8 10.5,-2.8 5.3,0 9.5,1.5 12.7,4.4 3.2,3 5,7 5.6,12.3 h -6.6 c -0.6,-4 -1.8,-6.9 -3.7,-8.6 -1.9,-1.8 -4.6,-2.7 -8,-2.7 -4.2,0 -7.5,1.6 -9.9,4.7 -2.4,3.1 -3.6,7.5 -3.6,13.2 v 4.8 c 0,5.4 1.1,9.7 3.4,12.9 2.3,3.2 5.4,4.8 9.5,4.8 3.6,0 6.4,-0.8 8.4,-2.5 1.9,-1.7 3.2,-4.5 3.9,-8.6 h 6.5 z"
   id="path948" />
			<path
   style="fill:#333333"
   fill="#ffffff"
   d="m 355.5,192.2 h -6.6 v -23 h -25.1 v 23 h -6.6 v -49.8 h 6.6 v 21.4 h 25.1 v -21.4 h 6.6 z"
   id="path950" />
			<path
   style="fill:#333333"
   fill="#ffffff"
   d="m 422.8,192.2 h -6.6 v -23 h -25.1 v 23 h -6.6 v -49.8 h 6.6 v 21.4 h 25.1 v -21.4 h 6.6 z"
   id="path952" />
			<path
   style="fill:#333333"
   fill="#ffffff"
   d="m 469.5,142.4 v 33.9 c 0,4.7 -1.5,8.5 -4.4,11.5 -2.9,3 -6.9,4.7 -11.9,5 l -1.7,0.1 c -5.4,0 -9.8,-1.5 -13,-4.4 -3.2,-2.9 -4.9,-7 -4.9,-12.1 v -33.9 h 6.5 v 33.7 c 0,3.6 1,6.4 3,8.4 2,2 4.8,3 8.5,3 3.7,0 6.6,-1 8.5,-3 2,-2 3,-4.8 3,-8.4 v -33.7 h 6.4 z"
   id="path954" />
			<path
   style="fill:#333333"
   fill="#ffffff"
   d="m 479.9,192.2 v -49.8 h 16.3 c 5.4,0 9.5,1.1 12.2,3.4 2.7,2.2 4.1,5.5 4.1,9.9 0,2.3 -0.7,4.4 -2,6.2 -1.3,1.8 -3.1,3.2 -5.4,4.2 2.7,0.8 4.8,2.2 6.4,4.3 1.6,2.1 2.3,4.6 2.3,7.5 0,4.5 -1.4,8 -4.3,10.5 -2.9,2.6 -7,3.8 -12.3,3.8 z m 6.5,-28.5 h 9.9 c 2.9,0 5.2,-0.7 6.9,-2.2 1.7,-1.4 2.6,-3.4 2.6,-5.9 0,-2.7 -0.8,-4.7 -2.4,-6 -1.6,-1.2 -4,-1.9 -7.3,-1.9 h -9.7 z m 0,5.2 v 17.9 h 10.8 c 3.1,0 5.5,-0.8 7.2,-2.4 1.8,-1.6 2.6,-3.8 2.6,-6.5 0,-6 -3.3,-9 -9.8,-9 z"
   id="path956" />
		</g>
	</g><path
   style="fill:#999999"
   fill="#ffffff"
   d="M 97.9,139.6 66.5,121.5 V 85.1 L 97.9,67 129.3,85.1 v 36.3 z m -27.6,-20.4 27.6,15.9 27.6,-15.9 V 87.3 L 97.9,71.4 70.3,87.3 Z"
   id="path962" /><path
   fill="#fb4800"
   d="M 59.1,206.8 27,188.3 v -37 l 32.1,-18.5 32.1,18.5 v 37 z m -27,-21.4 27,15.6 27,-15.6 v -31.1 l -27,-15.6 -27,15.6 z"
   id="path964" /><path
   fill="#a7dd00"
   d="M 59.1,74 27,55.5 v -37 L 59.1,0 91.2,18.5 v 37 z m -27,-21.4 27,15.6 27,-15.6 V 21.4 l -27,-15.6 -27,15.6 z"
   id="path966" /><path
   fill="#9733a2"
   d="m 142,206.8 -32,-18.5 v -37 l 32.1,-18.5 32.1,18.5 v 37 z m -27,-21.4 27,15.6 27,-15.6 v -31.1 l -27,-15.6 -27,15.6 z"
   id="path968" /><g
   style="fill:#333333"
   id="g1032">
		<g
   style="fill:#333333"
   id="g1030">
			<g
   style="fill:#333333"
   id="g974">
				<path
   style="fill:#333333"
   fill="#ffffff"
   d="m 3.4,74.9 21.2,48.8 21.3,-48.8 h 2.8 v 51.6 H 46.8 V 77.8 L 25.4,126.6 H 23.9 L 2.6,78 v 48.5 h -2 V 74.9 Z"
   id="path970" />
				<path
   style="fill:#333333"
   fill="#ffffff"
   d="m 48.7,74.9 v 51.6 H 46.8 V 77.8 L 25.4,126.6 H 23.9 L 2.6,78 v 48.5 h -2 V 74.9 h 2.7 l 21.2,48.8 21.3,-48.8 h 2.9 m 0.6,-0.6 H 48.7 45.9 45.5 L 45.3,74.7 24.6,122.2 3.9,74.7 3.7,74.3 H 3.4 0.6 0 v 0.6 51.6 0.6 H 0.6 2.5 3.1 V 126.5 81 l 20.1,45.7 0.2,0.4 h 0.4 1.5 0.4 l 0.2,-0.4 20.2,-46 v 45.7 0.6 h 0.6 1.9 0.6 v -0.6 -51.5 -0.6 z"
   id="path972" />
			</g>
			<g
   style="fill:#333333"
   id="g980">
				<path
   style="fill:#333333"
   fill="#ffffff"
   d="m 181.1,126.5 h -1.9 L 145.9,78.2 v 48.3 H 144 V 74.9 h 1.9 l 33.3,48.2 V 74.9 h 1.9 z"
   id="path976" />
				<path
   style="fill:#333333"
   fill="#ffffff"
   d="m 181.1,74.9 v 51.6 h -1.9 L 145.9,78.2 v 48.3 H 144 V 74.9 h 1.9 l 33.3,48.2 V 74.9 h 1.9 m 0.6,-0.6 h -0.6 -1.9 -0.6 v 0.6 46.2 l -32.2,-46.6 -0.2,-0.3 h -0.3 -1.9 -0.6 v 0.6 51.6 0.6 h 0.6 1.9 0.6 v -0.6 -46.2 l 32.2,46.7 0.2,0.3 h 0.3 1.9 0.6 v -0.6 -51.7 z"
   id="path978" />
			</g>
			<g
   style="fill:#333333"
   id="g986">
				<path
   style="fill:#333333"
   fill="#ffffff"
   d="m 230.9,76.8 h -18.8 v 49.7 h -1.9 V 76.8 h -18.8 v -1.9 h 39.5 z"
   id="path982" />
				<path
   style="fill:#333333"
   fill="#ffffff"
   d="m 230.9,74.9 v 1.9 h -18.8 v 49.7 h -1.9 V 76.8 h -18.8 v -1.9 h 39.5 m 0.7,-0.6 h -0.6 -39.5 -0.6 v 0.6 1.9 0.6 h 0.6 18.1 v 49 0.6 h 0.6 1.9 0.6 v -0.6 -49 h 18.1 0.6 v -0.6 -1.9 -0.6 z"
   id="path984" />
			</g>
			<g
   style="fill:#333333"
   id="g992">
				<path
   style="fill:#333333"
   fill="#ffffff"
   d="m 244.2,104.7 v 21.8 h -1.9 V 74.9 h 16.1 c 5.3,0 9.4,1.3 12.3,4 2.9,2.7 4.4,6.4 4.4,11.1 0,4.7 -1.4,8.3 -4.3,10.8 -2.9,2.5 -6.9,3.9 -12.1,3.9 z m 0,-1.9 h 14.2 c 4.7,0 8.3,-1.1 10.9,-3.4 2.6,-2.2 3.9,-5.4 3.9,-9.4 0,-4.2 -1.3,-7.4 -3.9,-9.7 -2.6,-2.3 -6.2,-3.5 -10.9,-3.5 h -14.2 z"
   id="path988" />
				<path
   style="fill:#333333"
   fill="#ffffff"
   d="m 258.4,74.9 c 5.3,0 9.4,1.3 12.3,4 2.9,2.7 4.4,6.4 4.4,11.1 0,4.7 -1.4,8.3 -4.3,10.8 -2.8,2.6 -6.9,3.9 -12.1,3.9 h -14.5 v 21.8 h -1.9 V 74.9 h 16.1 m -14.2,27.9 h 14.2 c 4.7,0 8.3,-1.1 10.9,-3.4 2.6,-2.2 3.9,-5.4 3.9,-9.4 0,-4.2 -1.3,-7.4 -3.9,-9.7 -2.6,-2.3 -6.2,-3.5 -10.9,-3.5 h -14.2 v 26 m 14.2,-28.5 h -16.1 -0.6 v 0.6 51.6 0.6 h 0.6 1.9 0.6 v -0.6 -21.2 h 13.8 c 5.4,0 9.6,-1.4 12.6,-4.1 3,-2.7 4.5,-6.5 4.5,-11.3 0,-4.9 -1.5,-8.8 -4.6,-11.5 -3,-2.7 -7.3,-4.1 -12.7,-4.1 z m -13.6,3.2 h 13.6 c 4.5,0 8,1.1 10.4,3.3 2.4,2.2 3.7,5.3 3.7,9.3 0,3.8 -1.2,6.8 -3.7,8.9 -2.5,2.1 -6,3.2 -10.4,3.2 h -13.6 z"
   id="path990" />
			</g>
			<g
   style="fill:#333333"
   id="g998">
				<path
   style="fill:#333333"
   fill="#ffffff"
   d="m 316,100.9 h -25.9 v 23.7 h 29.5 v 1.9 H 288.2 V 74.9 h 31.4 v 1.9 H 290.1 V 99 H 316 Z"
   id="path994" />
				<path
   style="fill:#333333"
   fill="#ffffff"
   d="m 319.6,74.9 v 1.9 H 290.1 V 99 H 316 v 1.9 h -25.9 v 23.7 h 29.5 v 1.9 H 288.2 V 74.9 h 31.4 m 0.6,-0.6 h -0.6 -31.4 -0.6 v 0.6 51.6 0.6 h 0.6 31.4 0.6 v -0.6 -1.9 -0.6 h -0.6 -28.8 v -22.4 h 25.2 0.6 V 101 99 98.4 H 316 290.8 V 77.5 h 28.8 0.6 V 76.9 75 Z"
   id="path996" />
			</g>
			<g
   style="fill:#333333"
   id="g1004">
				<path
   style="fill:#333333"
   fill="#ffffff"
   d="m 333.8,124.6 h 26.5 v 1.9 H 331.9 V 74.9 h 1.9 z"
   id="path1000" />
				<path
   style="fill:#333333"
   fill="#ffffff"
   d="m 333.8,74.9 v 49.7 h 26.5 v 1.9 H 331.9 V 74.9 h 1.9 m 0.6,-0.6 h -0.6 -1.9 -0.6 v 0.6 51.6 0.6 h 0.6 28.4 0.6 v -0.6 -1.9 -0.6 h -0.6 -25.8 V 75 74.3 Z"
   id="path1002" />
			</g>
			<g
   style="fill:#333333"
   id="g1010">
				<path
   style="fill:#333333"
   fill="#ffffff"
   d="M 373.6,124.6 H 400 v 1.9 H 371.6 V 74.9 h 1.9 v 49.7 z"
   id="path1006" />
				<path
   style="fill:#333333"
   fill="#ffffff"
   d="m 373.6,74.9 v 49.7 H 400 v 1.9 H 371.6 V 74.9 h 2 m 0.6,-0.6 h -0.6 -1.9 -0.7 v 0.6 51.6 0.6 h 0.6 28.4 0.6 v -0.6 -1.9 -0.6 H 400 374.2 V 75 Z"
   id="path1008" />
			</g>
			<g
   style="fill:#333333"
   id="g1016">
				<path
   style="fill:#333333"
   fill="#ffffff"
   d="m 414.7,126.5 h -1.9 V 74.9 h 1.9 z"
   id="path1012" />
				<path
   style="fill:#333333"
   fill="#ffffff"
   d="m 414.7,74.9 v 51.6 h -1.9 V 74.9 h 1.9 m 0.7,-0.6 h -0.6 -1.9 -0.6 v 0.6 51.6 0.6 h 0.6 1.9 0.6 v -0.6 -51.6 z"
   id="path1014" />
			</g>
			<g
   style="fill:#333333"
   id="g1022">
				<path
   style="fill:#333333"
   fill="#ffffff"
   d="m 460.4,100.9 h -25.9 v 23.7 H 464 v 1.9 H 432.6 V 74.9 H 464 v 1.9 H 434.5 V 99 h 25.9 z"
   id="path1018" />
				<path
   style="fill:#333333"
   fill="#ffffff"
   d="m 464,74.9 v 1.9 H 434.5 V 99 h 25.9 v 1.9 h -25.9 v 23.7 H 464 v 1.9 H 432.6 V 74.9 H 464 m 0.7,-0.6 H 464 432.6 432 v 0.6 51.6 0.6 h 0.6 31.4 0.6 v -0.6 -1.9 -0.6 H 464 435.2 v -22.4 h 25.2 0.6 V 101 99 98.4 h -0.6 -25.2 V 77.5 h 28.8 0.6 V 76.9 75 74.3 Z"
   id="path1020" />
			</g>
			<g
   style="fill:#333333"
   id="g1028">
				<path
   style="fill:#333333"
   fill="#ffffff"
   d="M 495.9,104.5 H 478 v 22.1 h -1.9 V 74.9 h 16.4 c 5.2,0 9.3,1.3 12.3,4 3.1,2.7 4.6,6.3 4.6,10.9 0,3.5 -1.1,6.6 -3.3,9.2 -2.2,2.6 -5,4.3 -8.3,4.9 l 13.8,22.1 v 0.5 h -2 z m -17.9,-2 h 16.3 c 4,0 7.2,-1.2 9.6,-3.6 2.4,-2.4 3.7,-5.4 3.7,-9.1 0,-4 -1.4,-7.2 -4.1,-9.5 -2.7,-2.3 -6.4,-3.5 -11.1,-3.5 H 478 Z"
   id="path1024" />
				<path
   style="fill:#333333"
   fill="#ffffff"
   d="m 492.5,74.9 c 5.2,0 9.3,1.3 12.3,4 3.1,2.7 4.6,6.3 4.6,10.9 0,3.5 -1.1,6.6 -3.3,9.2 -2.2,2.6 -5,4.3 -8.3,4.9 l 13.8,22.1 v 0.5 h -2 L 495.9,104.4 H 478 v 22.1 h -1.9 V 74.9 h 16.4 M 478,102.5 h 16.3 c 4,0 7.2,-1.2 9.6,-3.6 2.4,-2.4 3.7,-5.4 3.7,-9.1 0,-4 -1.4,-7.2 -4.1,-9.5 -2.7,-2.3 -6.4,-3.5 -11.1,-3.5 H 478 v 25.7 m 14.5,-28.2 h -16.4 -0.6 v 0.6 51.6 0.6 h 0.6 1.9 0.6 v -0.6 -21.4 h 16.9 l 13.5,21.8 0.2,0.3 h 0.4 2 0.6 v -0.6 -0.6 -0.2 l -0.1,-0.2 -13.3,-21.3 c 3.1,-0.8 5.7,-2.4 7.8,-4.9 2.3,-2.7 3.4,-6 3.4,-9.6 0,-4.8 -1.6,-8.6 -4.8,-11.4 -3,-2.7 -7.3,-4.1 -12.7,-4.1 z m -13.8,3.2 h 13.8 c 4.5,0 8.1,1.1 10.7,3.3 2.6,2.2 3.8,5.2 3.8,9 0,3.5 -1.2,6.4 -3.5,8.7 -2.3,2.3 -5.4,3.4 -9.2,3.4 h -15.6 z"
   id="path1026" />
			</g>
		</g>
	</g>
</svg>
