<?xml version="1.0" encoding="UTF-8" standalone="no"?>
<svg
   xmlns:dc="http://purl.org/dc/elements/1.1/"
   xmlns:cc="http://creativecommons.org/ns#"
   xmlns:rdf="http://www.w3.org/1999/02/22-rdf-syntax-ns#"
   xmlns:svg="http://www.w3.org/2000/svg"
   xmlns="http://www.w3.org/2000/svg"
   xmlns:sodipodi="http://sodipodi.sourceforge.net/DTD/sodipodi-0.dtd"
   xmlns:inkscape="http://www.inkscape.org/namespaces/inkscape"
   sodipodi:docname="logo-noel.svg"
   inkscape:version="1.0 (4035a4fb49, 2020-05-01)"
   id="svg1736"
   version="1.1"
   viewBox="0 0 270.93333 54.239584"
   height="205"
   width="1024"
   inkscape:export-filename="./logo_chandeleur-2021.png"
   inkscape:export-xdpi="96"
   inkscape:export-ydpi="96">
  <defs
     id="defs1730">
    <rect
       id="rect2851"
       height="96.005951"
       width="464.91071"
       y="41.577381"
       x="21.922619" />
    <rect
       x="21.922619"
       y="41.577381"
       width="464.91071"
       height="96.005951"
       id="rect2851-9" />
    <rect
       x="21.922619"
       y="41.577381"
       width="464.91071"
       height="96.005951"
       id="rect907" />
    <rect
       id="rect2851-9-5"
       height="96.005951"
       width="464.91071"
       y="41.577381"
       x="21.922619" />
    <rect
       id="rect964"
       height="96.005951"
       width="464.91071"
       y="41.577381"
       x="21.922619" />
    <rect
       x="21.922619"
       y="41.577381"
       width="464.91071"
       height="96.005951"
       id="rect2851-9-5-0" />
    <rect
       x="21.922619"
       y="41.577381"
       width="464.91071"
       height="96.005951"
       id="rect2417" />
    <linearGradient
       id="linearGradient7947-7-1">
      <stop
         id="stop7949-0-1"
         offset="0"
         style="stop-color:#784421;stop-opacity:1;" />
      <stop
         id="stop7951-4-0"
         offset="1"
         style="stop-color:#1d130c;stop-opacity:1;" />
    </linearGradient>
    <linearGradient
       id="linearGradient8984-2-3-5">
      <stop
         id="stop8986-8-8-9"
         offset="0"
         style="stop-color:#c5c50f;stop-opacity:1;" />
      <stop
         id="stop8988-9-31-8"
         offset="1"
         style="stop-color:#808000;stop-opacity:1;" />
    </linearGradient>
    <linearGradient
       id="linearGradient13226-0">
      <stop
         id="stop13228-2"
         offset="0"
         style="stop-color:#d45500;stop-opacity:1;" />
      <stop
         id="stop13230-5"
         offset="1"
         style="stop-color:#8a3700;stop-opacity:1;" />
    </linearGradient>
  </defs>
  <sodipodi:namedview
     inkscape:window-maximized="1"
     inkscape:window-y="-12"
     inkscape:window-x="-12"
     inkscape:window-height="1714"
     inkscape:window-width="2736"
     showgrid="false"
     inkscape:document-rotation="0"
     inkscape:current-layer="layer2"
     inkscape:document-units="mm"
     inkscape:cy="110.13887"
     inkscape:cx="599.79866"
     inkscape:zoom="1.4"
     inkscape:pageshadow="2"
     inkscape:pageopacity="0.0"
     borderopacity="1.0"
     bordercolor="#666666"
     pagecolor="#ffffff"
     id="base"
     units="px"
     borderlayer="true" />
  <metadata
     id="metadata1733">
    <rdf:RDF>
      <cc:Work
         rdf:about="">
        <dc:format>image/svg+xml</dc:format>
        <dc:type
           rdf:resource="http://purl.org/dc/dcmitype/StillImage" />
        <dc:title />
      </cc:Work>
    </rdf:RDF>
  </metadata>
  <g
     id="layer1"
     inkscape:groupmode="layer"
     inkscape:label="Layer 1"
     style="opacity:0.5" />
  <g
     inkscape:groupmode="layer"
     id="layer2"
     inkscape:label="Texte">
    <text
       transform="matrix(4.5818445,0,0,5.2534408,-48.466223,-206.06978)"
       xml:space="preserve"
       id="text2849"
       style="font-style:normal;font-variant:normal;font-weight:normal;font-stretch:normal;font-size:5.99687px;line-height:1.25;font-family:'Cambria Math';-inkscape-font-specification:'Cambria Math';letter-spacing:0px;word-spacing:0px;white-space:pre;shape-inside:url(#rect2851-9-5-0);fill:#ff0e00;fill-opacity:1;stroke:none;stroke-width:0.138279;stroke-miterlimit:4;stroke-dasharray:none;stroke-opacity:1;"><tspan
         x="21.921875"
         y="46.992291"><tspan
           style="font-style:normal;font-variant:normal;font-weight:normal;font-stretch:normal;font-size:5.99687px;font-family:'Kingthings Christmas 2';-inkscape-font-specification:'Kingthings Christmas 2, ';fill:#ff0e00;fill-opacity:1;stroke:none">Le Noel des Speakers</tspan></tspan></text>
    <path
       style="color:#000000;display:inline;overflow:visible;visibility:visible;fill:#fdddca;fill-opacity:1;fill-rule:nonzero;stroke:#000000;stroke-width:0.592764;marker:none;enable-background:accumulate"
       d="m 8.4182636,29.939818 c -0.3379443,0.260677 -0.2398928,0.955562 0.2147007,1.564767 -1.1826905,0.189496 -2.6868236,0.285433 -2.5894774,1.823503 0.09735,1.53807 1.7902174,1.562556 3.143347,1.476913 C 10.539963,34.71936 11.59126,33.902814 11.532903,32.980654 11.495912,32.396781 11.021905,31.91101 10.336921,31.654721 10.189493,31.321172 9.9714506,30.930166 9.6920667,30.567265 9.3977079,30.162595 8.9471324,29.642605 8.4182636,29.939818 Z"
       id="path10976"
       sodipodi:nodetypes="cczssccc"
       inkscape:connector-curvature="0" />
    <path
       style="display:inline;fill:#fdddca;fill-opacity:1;fill-rule:evenodd;stroke:#000000;stroke-width:0.675509;stroke-linecap:round;stroke-linejoin:round;stroke-miterlimit:4;stroke-dasharray:none;stroke-opacity:1"
       d="m 16.403427,20.319723 c 0,4.680067 3.798335,8.478384 8.478394,8.478384 4.680071,0 8.47838,-3.798317 8.47838,-8.478384 0,-4.680067 -3.798309,-8.478384 -8.47838,-8.478384 -4.680059,0 -8.478394,3.798317 -8.478394,8.478384 z"
       id="path4862"
       inkscape:connector-curvature="0" />
    <path
       style="display:inline;fill:#ececec;fill-opacity:1;fill-rule:evenodd;stroke:#4d4d4d;stroke-width:0.675509;stroke-linecap:round;stroke-linejoin:round;stroke-miterlimit:4;stroke-dasharray:none;stroke-opacity:1"
       d="m 26.844153,10.036779 c -0.99373,0.44304 -2.05805,-0.02912 -3.091756,0.02248 -0.92517,0.354368 -1.828782,0.638716 -2.836837,0.678041 -0.447425,1.029991 -1.783105,0.827209 -2.391033,1.460661 -0.176395,0.628932 -0.806441,1.231557 -1.235893,1.661322 -1.260448,0.20119 -0.76107,1.805664 -1.510494,2.479035 -0.609535,0.957566 0.490717,1.983069 -0.126025,2.966377 0.282853,1.045793 -0.839912,2.215222 0.02041,3.137264 0.519277,0.91946 0.112248,1.969016 -0.471252,2.71741 -0.153028,1.04486 0.911674,1.768981 -0.09082,2.645432 -0.496075,0.914645 0.976485,1.662332 0.229599,2.441073 -0.936369,0.902729 0.09171,0.955283 0.338684,1.767286 0.856341,0.644075 1.887407,0.826724 2.913944,0.984675 0.764795,0.405226 1.643254,1.265808 2.534455,0.669941 0.983208,-0.337744 1.971364,-0.550433 2.998641,-0.249582 1.171644,-0.06527 2.36482,-0.278664 3.514295,0.06146 1.120444,0.241929 2.066022,-0.685923 3.185624,-0.546627 0.804464,-0.73162 0.825396,-1.125539 1.858541,-1.219489 0.875844,-0.8955 0.861532,-1.45595 1.082228,-2.425909 0.215543,-1.031122 -0.730291,-1.984822 -0.205797,-3.045289 0.131892,-1.030034 1.042329,-1.691474 0.697777,-2.759974 0.723696,-0.915157 -0.364297,-1.955016 0.221933,-2.941077 0.58558,-0.728367 -0.211601,-1.483834 0.34459,-2.245994 -0.67858,-0.531554 -1.646073,-1.271909 -1.501412,-2.266544 0.488051,-1.153387 -0.95711,-1.519038 -1.221952,-2.454452 -0.384413,-1.017764 -1.778539,-1.167926 -2.398724,-2.058088 -1.030377,-0.280798 -1.296138,-1.352003 -2.401313,-1.374891 l -0.232189,-0.07861 z m -2.025804,3.158843 c 0.826327,0.591757 1.826129,0.703656 2.679243,0.722836 0.567263,1.120219 1.769788,-0.311955 2.542313,0.700137 0.50735,0.741891 0.813622,1.532428 0.911253,2.363524 0.774463,0.658634 1.175305,1.979107 0.519978,2.775208 0.37505,0.86156 0.384923,1.635308 -0.0139,2.466964 0.479046,0.947921 -0.170057,1.98099 0.3863,2.935067 -0.106508,0.857773 -1.723843,2.101421 -2.515908,2.471818 -1.12825,-0.261749 -2.089671,0.4082 -3.19565,0.37612 -1.078083,0.104365 -2.124761,-0.150477 -3.18468,-0.24703 -1.093478,0.155647 -0.697879,-0.689729 -0.908281,-1.70161 -0.810064,-0.480808 -1.658012,-0.890293 -1.600727,-2.001244 -0.55415,-0.97273 0.5479,-2.044234 -0.416136,-2.950685 -0.613782,-0.984512 1.025824,-1.421355 0.447578,-2.487341 -0.264868,-0.968116 0.01799,-1.867288 0.22886,-2.801156 0.193309,-0.88457 0.801568,-1.26284 1.624133,-1.487623 0.54031,-1.01757 1.822876,-0.204776 2.495627,-1.134985 z"
       id="path2065"
       sodipodi:nodetypes="cccccccccccccccccccccccccccccccccccccccccccccc"
       inkscape:connector-curvature="0" />
    <path
       style="display:inline;fill:#ff0e00;fill-opacity:1;fill-rule:evenodd;stroke:#aa0000;stroke-width:0.568065;stroke-linecap:round;stroke-linejoin:round;stroke-miterlimit:4;stroke-dasharray:none;stroke-opacity:1"
       d="m 24.875366,27.068081 c -1.336164,0.09818 -3.07997,-0.409087 -4.059376,0.637241 -0.911929,0.974245 -1.646646,1.052569 -2.779437,1.820461 -1.008578,0.683687 -2.25423,1.079332 -2.834223,2.362507 -0.488484,1.080738 -1.218839,1.848513 -1.712197,2.978635 -0.456545,1.0458 -2.328262,1.083499 -2.626384,2.470884 -0.335074,1.559384 -1.5817973,2.711647 -2.813469,3.661574 -0.9791623,2.555469 -1.0235821,3.603117 -2.8427902,5.438324 1.8377776,0.385473 3.9737444,-0.147244 5.8174252,0.192236 0.978118,0.180106 1.290322,1.574533 2.662329,1.518371 1.191773,-0.04879 2.318683,-0.57773 3.439101,-0.336827 1.673229,0.359766 3.274875,1.292891 5.030007,1.2424 1.262565,-0.03632 2.440217,-0.379058 3.662718,-1.228684 1.151401,-0.800199 -0.283364,-1.373759 1.209209,-1.653128 1.343282,-0.251431 1.610727,-2.251368 1.922153,-3.535956 0.314958,-1.299197 0.403443,-2.57635 0.84671,-3.859045 0.509008,-1.472882 1.143302,-3.10444 0.878931,-4.666751 -0.209446,-1.237728 0.181702,-2.354692 0.3214,-3.681524 0.13466,-1.278907 0.05383,-1.403947 0.522938,-2.616984 0.594738,-1.537926 -2.020268,-1.047631 -2.905845,-1.029247 -1.069051,0.02219 -2.133983,0.21182 -3.208009,0.179278"
       id="path4561"
       sodipodi:nodetypes="cssssssssssssssssssss"
       inkscape:connector-curvature="0" />
    <path
       style="display:inline;fill:#ffffff;fill-opacity:1;fill-rule:evenodd;stroke:#b3b3b3;stroke-width:0.568065;stroke-linecap:round;stroke-linejoin:round;stroke-miterlimit:4;stroke-opacity:1"
       d="m 5.1491971,45.751478 c 0.5426256,-0.06054 0.9128822,-0.434514 1.3232613,-0.592069 0.6148422,-0.236062 1.3511436,1.019287 2.2960077,0.706954 0.8920307,-0.294866 1.8812839,-0.282508 2.7752279,-0.0678 0.950387,0.228264 1.617934,1.159136 2.574049,1.51627 0.820459,0.306461 1.585841,-0.46677 2.446493,-0.549298 0.997008,-0.0956 1.879868,0.186207 2.703886,0.579367 0.777142,0.370786 1.477318,1.034633 2.422411,0.861468 0.888051,-0.162715 1.649364,-0.603394 2.586307,-0.600463 1.031321,0.0032 1.70712,-0.83523 2.360062,-1.550272 0.686514,-0.75178 1.915915,-1.029067 2.80815,-0.626197 1.233827,0.557107 -0.216742,1.438031 -0.982825,1.722163 -1.005159,0.372809 -1.31624,1.66161 -2.278095,2.21193 -1.003692,0.574254 -2.207008,0.501933 -3.31087,0.684498 -0.985949,0.163069 -1.98931,0.02316 -2.944774,-0.313557 -1.015351,-0.357812 -1.964591,-0.942384 -3.092471,-0.90329 -0.924391,0.03204 -1.834394,0.114519 -2.743594,0.251286 C 13.136219,49.2263 12.508419,48.779637 11.842135,48.088688 11.305536,47.53225 10.169212,48.023498 9.332438,47.962553 8.2104254,47.880828 7.1077528,47.086427 5.9990876,47.5575 5.1200789,47.930989 3.5943137,47.531096 4.5620344,46.46035 4.768694,46.231688 4.8969863,45.779605 5.1491971,45.751474 Z"
       id="path4563"
       inkscape:connector-curvature="0" />
    <path
       style="display:inline;overflow:visible;visibility:visible;fill:none;stroke:#000000;stroke-width:0.583712;stroke-linecap:round;stroke-linejoin:round;stroke-miterlimit:4;stroke-dashoffset:0;stroke-opacity:1;marker:none"
       d="M 33.864937,50.171813 29.260314,49.682832 28.48608,39.168851"
       id="path4565"
       inkscape:connector-curvature="0" />
    <path
       style="display:inline;overflow:visible;visibility:visible;fill:none;stroke:#000000;stroke-width:0.583712;stroke-linecap:round;stroke-linejoin:round;stroke-miterlimit:4;stroke-dasharray:none;stroke-dashoffset:0;stroke-opacity:1;marker:none"
       d="m 22.880648,39.518039 -3.297222,10.275008 c 0,0 -3.667399,0.325992 -3.667399,0.325992"
       id="path4571"
       sodipodi:nodetypes="ccc"
       inkscape:connector-curvature="0" />
    <path
       style="display:inline;overflow:visible;visibility:visible;fill:#ff0e00;fill-opacity:1;fill-rule:nonzero;stroke:#000000;stroke-width:0.53891;stroke-linecap:round;stroke-linejoin:round;stroke-miterlimit:4;stroke-dasharray:none;stroke-dashoffset:0;stroke-opacity:1;marker:none"
       d="m 30.123275,38.068311 c -0.17609,0.031 -0.340368,0.06575 -0.525144,0.09385 -0.411187,0.06254 -0.843394,0.116917 -1.296087,0.160894 -0.452693,0.04397 -0.924762,0.07878 -1.416767,0.09832 -0.491993,0.01955 -1.003846,0.02416 -1.532957,0.01342 -0.529098,-0.01071 -1.076207,-0.03801 -1.640218,-0.08491 -0.56401,-0.0469 -1.144054,-0.112198 -1.740782,-0.201116 -0.596728,-0.08892 -1.20963,-0.200629 -1.836869,-0.337431 -0.139214,-0.03036 -0.28617,-0.0766 -0.426812,-0.109493 l -1.144131,10.379872 2.426812,0.109506 2.176536,-6.891611 c 0.570974,-1.141952 2.548537,-1.386666 3.28268,0.163129 l 1.380988,6.835747 2.424592,-0.08491 z"
       id="path5424"
       inkscape:connector-curvature="0" />
    <path
       style="display:inline;overflow:visible;visibility:visible;fill:#ff0e00;fill-opacity:1;fill-rule:nonzero;stroke:#aa0000;stroke-width:0.53891;stroke-linecap:round;stroke-linejoin:round;stroke-miterlimit:4;stroke-dasharray:none;stroke-dashoffset:0;stroke-opacity:1;marker:none"
       d="m 38.517928,26.885468 c 0,0 -3.081143,1.26248 -3.58144,1.26248 -0.412551,0 -4.819923,-0.38577 -4.819923,-0.38577 -0.08827,-0.243347 -0.145247,-0.388826 -0.145247,-0.388826 l -4.243578,0.06704 c -2.202901,4.875292 -1.469587,11.001836 -0.156421,14.223448 1.833566,-0.07061 3.621199,-0.554196 5.340769,-1.49944 L 30.11881,38.471731 c 1.692222,-1.725407 1.372939,-4.798112 0.794222,-7.208841 0,0 3.470952,0.391478 4.071328,0.191356 0.424516,-0.141509 4.381427,-1.561922 4.381427,-1.561922 l -0.847833,-3.006851 z"
       id="path4573"
       sodipodi:nodetypes="cscccccccsccc"
       inkscape:connector-curvature="0" />
    <path
       style="display:inline;overflow:visible;visibility:visible;fill:#ffffff;fill-opacity:1;fill-rule:evenodd;stroke:#b3b3b3;stroke-width:0.757422;stroke-linecap:round;stroke-linejoin:round;stroke-miterlimit:4;stroke-dasharray:none;stroke-dashoffset:0;stroke-opacity:1;marker:none;enable-background:accumulate"
       d="m 31.01042,39.540935 c -0.880959,0.530951 -2.136917,1.152705 -3.271506,1.164245 -0.09835,0.05865 -0.190453,0.107031 -0.279333,0.145251 -0.239345,0.04145 -0.476992,0.07642 -0.715074,0.105029 -0.29941,-0.04896 -0.572875,-0.21614 -0.882694,-0.429052 -0.03431,-0.113588 -0.06773,-0.23082 -0.100513,-0.348602 l -1.396651,1.463686 c 0.0412,0.152904 0.08087,0.303249 0.122963,0.446924 -0.08355,0.787361 0.420472,1.40712 1.119563,0.639107 0.06161,-0.0088 0.124111,-0.01925 0.18771,-0.02904 0.507797,0.239253 0.921241,0.0033 1.349711,-0.250279 0.476061,-0.101011 0.969023,-0.218543 1.46145,-0.346369 0.0051,0.0017 0.0102,0.0027 0.01569,0.0045 0.0026,-0.0032 0.0038,-0.0059 0.0064,-0.0089 0.788787,-0.205314 1.571886,-0.437448 2.263694,-0.679329 0.547262,-0.03491 1.051513,-0.144758 1.365349,-0.634635 -0.787805,-0.364348 -0.03572,-1.187823 -0.674855,-1.168714 l -0.02232,-0.0581 c -0.06339,0.02864 -0.126534,0.05707 -0.189942,0.08491 -7.01e-4,1.25e-4 -0.0013,-1.25e-4 -0.0026,0 l -0.357549,-0.100564 z"
       id="path5453"
       inkscape:connector-curvature="0" />
    <path
       style="display:inline;overflow:visible;visibility:visible;fill:#ff0e00;fill-opacity:1;fill-rule:nonzero;stroke:#aa0000;stroke-width:0.53891;stroke-linecap:round;stroke-linejoin:round;stroke-miterlimit:4;stroke-dasharray:none;stroke-dashoffset:0;stroke-opacity:1;marker:none"
       d="m 23.562378,27.476145 -3.56871,0.05587 c -1.148135,0.04785 -4.100525,2.064035 -4.100525,2.064035 l -3.979195,1.426788 0.294563,3.114934 4.615746,-1.331108 1.949717,-0.620782 c -0.486699,2.157308 -0.79292,4.477841 0.710112,6.234039 l -0.779808,1.744481 c 1.886182,0.855762 3.751318,1.363178 5.575419,1.481563 1.196352,-3.50879 1.689365,-9.522977 -0.717319,-14.169815 z"
       id="path5434"
       sodipodi:nodetypes="ccccccccccc"
       inkscape:connector-curvature="0" />
    <path
       style="display:inline;overflow:visible;visibility:visible;fill:#ffffff;fill-opacity:1;fill-rule:evenodd;stroke:#b3b3b3;stroke-width:0.757422;stroke-linecap:round;stroke-linejoin:round;stroke-miterlimit:4;stroke-dasharray:none;stroke-dashoffset:0;stroke-opacity:1;marker:none;enable-background:accumulate"
       d="m 25.388074,27.073912 -1.991058,0.02012 c 0.29131,0.564936 0.538844,1.151534 0.748608,1.749719 -0.04579,0.313734 -0.01148,0.681705 0.143015,1.04134 0.172441,0.389612 0.326438,0.773859 0.446927,1.139664 0.10906,0.549789 0.194419,1.103226 0.252508,1.655865 -0.01646,0.128625 -0.04618,0.249541 -0.08942,0.36201 0.05536,0.150556 0.105743,0.29694 0.154201,0.440223 0.07424,1.154783 0.05166,2.293749 -0.04911,3.374298 -0.03814,0.06995 -0.07883,0.139068 -0.122963,0.210055 0.169904,0.762963 -0.289218,1.691368 -0.299435,2.462566 -0.09643,0.427771 -0.203782,0.835008 -0.319564,1.217876 -0.309806,0.212912 -0.583271,0.380099 -0.882681,0.429049 -0.238081,-0.02861 -0.475729,-0.06357 -0.715073,-0.105028 -0.08891,-0.03822 -0.180976,-0.0866 -0.279333,-0.145251 -1.13459,-0.01148 -2.390548,-0.633293 -3.271507,-1.164245 l -0.357537,0.100564 c -7.78e-4,-1.25e-4 -0.0013,1.25e-4 -0.0026,0 -0.06339,-0.02784 -0.126534,-0.05628 -0.189942,-0.08491 l -0.02232,0.0581 c -0.639115,-0.0191 0.112886,0.804366 -0.674869,1.168715 0.313837,0.489876 0.818088,0.599723 1.365363,0.634635 0.691807,0.241881 1.474906,0.474015 2.263694,0.679328 0.0026,0.0032 0.0051,0.0057 0.0064,0.0089 0.0051,-0.0017 0.0102,-0.0028 0.01569,-0.0045 0.492426,0.127828 0.985401,0.245356 1.461462,0.346368 0.428457,0.253594 0.841914,0.489532 1.349711,0.25028 0.06352,0.0098 0.126024,0.02019 0.18771,0.02904 0.699091,0.768015 1.203074,0.148253 1.119551,-0.639105 0.106381,-0.363576 0.21067,-0.757515 0.310609,-1.177653 0.404617,-0.733824 0.692943,-1.484228 0.437999,-2.223459 0.107273,-0.669905 0.198475,-1.370837 0.265914,-2.089383 0.04732,-0.153424 0.06862,-0.326881 0.04464,-0.529608 0.05179,-0.676614 0.08202,-1.364383 0.08495,-2.053629 0.08546,-0.289972 0.118371,-0.640305 -0.02015,-1.132959 -0.02232,-0.537548 -0.06314,-1.072591 -0.125132,-1.597765 0.01148,-0.639963 -0.05931,-1.257881 -0.306145,-1.792176 -7.14e-4,-0.0023 -0.0013,-0.0045 -0.0026,-0.0068 C 26.10663,28.7609 25.799771,27.8706 25.38713,27.073857 Z"
       id="path5448"
       inkscape:connector-curvature="0" />
    <path
       style="display:inline;fill:#ff0e00;fill-opacity:1;fill-rule:evenodd;stroke:#aa0000;stroke-width:0.585017;stroke-linecap:round;stroke-linejoin:round;stroke-miterlimit:4;stroke-dasharray:none;stroke-opacity:1"
       d="M 33.682405,14.217171 C 33.021836,11.378852 29.950565,5.3519371 25.009656,3.4435616 17.574561,0.57183037 9.9238215,5.7962828 11.598951,11.889287 c 2.467604,-0.115527 4.2191,-3.6194553 4.456072,-2.509637 0.236972,1.109818 -0.466558,3.061152 -0.448853,5.573641 6.852997,-2.154247 10.709267,-3.282051 18.076235,-0.73612 z"
       id="path4605"
       sodipodi:nodetypes="cscscc"
       inkscape:connector-curvature="0" />
    <path
       style="display:inline;fill:#ffffff;fill-opacity:1;fill-rule:evenodd;stroke:#b3b3b3;stroke-width:0.585017;stroke-linecap:round;stroke-linejoin:round;stroke-miterlimit:4;stroke-dasharray:none;stroke-opacity:1"
       d="M 13.994346,13.22714 C 13.812478,12.879233 13.868704,12.463711 13.823167,12.084722 13.799697,11.640826 13.691862,11.20374 13.549753,10.784271 13.430234,10.409132 12.957846,10.499657 12.751271,10.217282 12.283947,9.7378846 11.541934,9.7249964 10.936315,9.8984866 10.631153,10.00173 10.311232,10.045862 9.9906348,10.053285 c -0.3288114,0.112019 -0.3809431,0.512932 -0.5619055,0.766769 -0.2164354,0.280233 -0.5083579,0.479856 -0.692624,0.794293 -0.2782103,0.36638 -0.6611306,0.775692 -0.5395068,1.277052 0.1313306,0.546012 0.476839,1.005684 0.6747917,1.526863 0.1513569,0.376618 0.4362894,0.69573 0.8171815,0.848961 0.5411393,0.255786 1.1334033,0.46705 1.7411903,0.400626 0.716426,-0.01587 1.424816,-0.305219 1.953327,-0.786966 0.319896,-0.323073 0.619089,-0.738062 0.582174,-1.21641 0.0026,-0.146025 7.15e-4,-0.29342 0.02908,-0.437333 z"
       id="path4607"
       inkscape:connector-curvature="0" />
    <path
       style="display:inline;fill:#ffffff;fill-opacity:1;fill-rule:evenodd;stroke:#b3b3b3;stroke-width:0.585017;stroke-linecap:round;stroke-linejoin:round;stroke-miterlimit:4;stroke-opacity:1"
       d="m 32.347503,12.2851 c -0.742561,-0.200928 -1.442201,-0.931833 -2.248936,-0.712766 -0.726745,0.197347 -1.436372,0.361915 -2.127057,-0.09744 -0.770751,-0.512594 -1.623163,0.211564 -2.467935,0.1502 -0.792538,-0.05757 -1.59051,-0.07406 -2.365891,-0.277658 -0.89337,-0.234576 -1.45812,0.812477 -2.349169,0.789594 -0.714104,-0.01834 -1.583813,-0.103269 -2.103638,0.523713 -0.508332,0.613142 -1.282936,0.962747 -2.049657,1.016894 -0.73825,0.05213 -1.681022,-0.01921 -2.148435,0.428491 -0.41773,0.400116 -0.258261,1.494185 0.311017,1.708156 0.630339,0.236919 2.224688,0.633983 2.84532,0.231478 1.627615,-0.620376 2.087821,0.330216 3.40609,-0.957004 1.166453,-0.389448 2.732548,-0.110143 4.085856,-0.206215 1.618011,-0.171024 2.548895,-0.634056 4.187136,-0.258628 0.411505,0.445362 1.268955,0.685219 1.857061,0.348618 0.741937,-0.424639 1.280117,0.36976 2.116062,0.313765 0.830013,-0.0556 1.428272,-0.602788 1.382467,-1.241173 -0.06199,-0.863137 -1.804419,-1.566032 -2.330291,-1.760025 z"
       id="path4609"
       sodipodi:nodetypes="csssssssssccccsssc"
       inkscape:connector-curvature="0" />
    <g
       id="g5374"
       transform="matrix(0.0715083,0,0,0.0715083,-182.57461,-26.485804)"
       style="stroke-linecap:round;stroke-linejoin:round">
      <path
         id="path5352"
         d="m 2862.3859,1016.4268 -18.955,60.9859 -93.127,6.593 c -4.1207,-44.5031 56.041,-37.9101 56.041,-37.9101 l 8.2413,-71.69959 c 21.4275,42.03079 47.7997,42.03079 47.7997,42.03079 z"
         style="display:inline;overflow:visible;visibility:visible;fill:#000000;fill-opacity:1;fill-rule:nonzero;stroke:#000000;stroke-width:8.45647;stroke-linecap:round;stroke-linejoin:round;stroke-miterlimit:4;stroke-dashoffset:0;stroke-opacity:1;marker:none"
         inkscape:connector-curvature="0" />
      <path
         id="path5354"
         d="m 2810.5513,962.50673 c 7.8878,-2.91024 11.6165,7.37036 18.6605,8.72768 2.8511,5.78455 8.2855,8.58592 12.0169,13.37462 3.3136,5.94492 9.2924,9.71832 15.7791,11.28512 6.3537,3.5734 9.3877,10.93935 15.9187,14.36945 3.0606,5.2491 2.5753,16.3808 -5.7747,15.9504 -7.6681,2.5753 -11.8727,-3.7696 -17.3855,-6.9329 -7.8464,1.2484 -9.1714,-8.5457 -15.4444,-10.7188 -9.4972,-2.8323 -17.1013,-9.93775 -22.0317,-18.3713 -4.6416,-5.29381 -10.0824,-10.91183 -9.1363,-18.63996 -1.2773,-7.02077 1.0495,-7.45097 7.3974,-9.04431 z"
         style="display:inline;fill:#ffffff;fill-opacity:1;stroke:#b3b3b3;stroke-width:9.47211;stroke-linecap:round;stroke-linejoin:round;stroke-miterlimit:4;stroke-opacity:1"
         inkscape:connector-curvature="0" />
    </g>
    <g
       id="g5370"
       transform="matrix(0.0715083,0,0,0.0715083,-182.86064,-26.485804)"
       style="stroke-linecap:round;stroke-linejoin:round">
      <path
         sodipodi:nodetypes="cccccc"
         id="path5362"
         d="m 2934.3047,1010.11 14.5677,62.18 93.2459,4.9613 c 7.2768,-44.0972 -54.0256,-33.5602 -54.0256,-33.5602 l -3.1189,-72.10417 c -24.3637,40.39957 -50.6691,38.52307 -50.6691,38.52307 z"
         style="display:inline;overflow:visible;visibility:visible;fill:#000000;fill-opacity:1;fill-rule:nonzero;stroke:#000000;stroke-width:8.45647;stroke-linecap:round;stroke-linejoin:round;stroke-miterlimit:4;stroke-dashoffset:0;stroke-opacity:1;marker:none"
         inkscape:connector-curvature="0" />
      <path
         id="path5364"
         d="m 2986.7323,960.86531 c -7.8878,-2.91024 -11.6166,7.37036 -18.6605,8.72768 -2.8511,5.78455 -8.2855,8.58592 -12.017,13.37462 -3.3135,5.94493 -9.2923,9.71833 -15.7791,11.28513 -6.3537,3.5734 -9.3876,10.93916 -15.9186,14.36936 -3.0607,5.2491 -2.5753,16.3808 5.7747,15.9504 7.668,2.5753 11.8726,-3.7696 17.3854,-6.933 7.8464,1.2485 9.1715,-8.5456 15.4445,-10.7188 9.4971,-2.8322 17.1013,-9.93756 22.0316,-18.37116 4.6416,-5.29377 10.0825,-10.91179 9.1363,-18.63992 1.2774,-7.02077 -1.0495,-7.45097 -7.3973,-9.04431 z"
         style="display:inline;fill:#ffffff;fill-opacity:1;stroke:#b3b3b3;stroke-width:9.47211;stroke-linecap:round;stroke-linejoin:round;stroke-miterlimit:4;stroke-opacity:1"
         inkscape:connector-curvature="0" />
    </g>
    <path
       style="display:inline;fill:#ffffff;fill-opacity:1;stroke:#b3b3b3;stroke-width:0.677336;stroke-linecap:round;stroke-linejoin:round;stroke-miterlimit:4;stroke-opacity:1"
       d="m 10.74474,31.263965 c -0.170018,0.464692 -0.04515,1.100646 0.03444,1.554533 0.0838,0.42877 0.01696,0.871269 0.119902,1.310183 0.09005,0.220219 0.202774,0.444763 0.412003,0.580319 0.399604,-0.0094 0.94619,-0.561302 1.011167,-0.906046 0.281157,-0.52443 0.236972,-0.740581 0.07985,-1.189264 0.0064,-0.786953 -0.192557,-1.011347 -0.551548,-1.653057 -0.283197,0.01972 -0.95605,0.06032 -1.105813,0.303332 z"
       id="path5415"
       sodipodi:nodetypes="cccccccc"
       inkscape:connector-curvature="0" />
    <ellipse
       ry="1.6964204"
       rx="1.0136917"
       cy="19.013288"
       cx="28.756826"
       id="path4852"
       style="display:inline;fill:#000000;fill-opacity:1;fill-rule:evenodd;stroke:none;stroke-width:0.0843067" />
    <path
       style="display:inline;fill:#ececec;fill-opacity:1;fill-rule:evenodd;stroke:#4d4d4d;stroke-width:0.618187;stroke-linecap:round;stroke-linejoin:round;stroke-miterlimit:4;stroke-dasharray:none;stroke-opacity:1"
       d="m 27.74246,21.527427 c -0.364757,0.0026 -0.730776,0.1179 -1.091106,0.360535 -0.661794,-0.180297 -1.291342,-0.619316 -1.94473,0.02003 -0.67867,-0.259321 -1.199745,-0.174684 -1.49302,0.683013 -0.431977,0.01852 -0.822283,-0.139529 -1.037953,0.49874 -0.187098,-0.479477 -0.255353,-0.315747 -0.478268,-0.04005 0.09005,0.434274 -0.237495,0.60788 -0.237495,0.953413 0,0.381374 0.619663,0.29331 0,0.666989 -0.115182,0.06945 -0.285481,0.979054 -0.315545,1.051559 -0.04095,0.09888 -0.0875,0.171926 -0.136178,0.236351 0.04758,0.228367 0.05651,0.488032 0.05651,0.717063 0,0.304477 0.09235,0.570678 0.136177,0.903339 0.308403,0.875021 0.619446,1.805948 0.808789,2.081087 0.342702,0.497999 0.977186,1.376312 1.195726,2.211278 0.663159,0.374209 1.359584,0.571985 2.027769,0.867284 0.701399,-0.07342 1.491297,-0.279679 2.132389,0.186278 0.936241,0.394177 1.537191,-0.979168 2.451263,-0.402602 0.656794,-0.03852 0.877401,-1.15898 1.592653,-1.157711 0.45967,-0.520622 0.80574,-2.825382 1.285423,-3.849709 -0.0026,-0.48721 -0.02704,-0.810303 -0.157785,-1.125668 -0.218502,-0.527083 0.07972,-0.549849 0.07972,-1.049557 0,-0.356041 -0.343608,-0.985858 -0.317204,-1.049557 0.249816,-0.602594 -0.157773,-0.591479 -0.157773,-0.859273 0,-0.189479 -0.0361,-0.319251 -0.08635,-0.418622 -0.291201,-0.02714 -0.793041,-0.70975 -0.861934,-1.113657 -0.757065,-0.01148 -1.602614,-0.409251 -2.368212,-0.05208 -0.354591,-0.210619 -0.718059,-0.320984 -1.082815,-0.318472 z"
       id="path8382"
       sodipodi:nodetypes="ccccccssscscsccccccssssccccc"
       inkscape:connector-curvature="0" />
    <ellipse
       ry="1.7726144"
       rx="1.0351443"
       cy="18.967442"
       cx="24.401823"
       id="path4854"
       style="display:inline;fill:#000000;fill-opacity:1;fill-rule:evenodd;stroke:none;stroke-width:0.0870864" />
    <path
       style="display:inline;fill:none;stroke:#000000;stroke-width:0.624955;stroke-linecap:round;stroke-linejoin:round;stroke-miterlimit:4;stroke-dasharray:none;stroke-opacity:1"
       d="m 29.83287,24.248389 c -1.595612,1.22199 -2.746018,1.559234 -4.598385,0.294083"
       id="path4856"
       sodipodi:nodetypes="cc"
       inkscape:connector-curvature="0" />
    <path
       style="display:inline;fill:#ececec;fill-opacity:1;fill-rule:evenodd;stroke:#000000;stroke-width:0.675509;stroke-linecap:round;stroke-linejoin:round;stroke-miterlimit:4;stroke-dasharray:none;stroke-opacity:1"
       d="m 29.726349,16.866143 c -0.0051,0.05063 -0.494263,-0.25407 -0.573207,-0.290923 -0.160758,-0.07503 -0.384196,-0.05477 -0.562403,-0.137957 -0.19984,-0.09328 -0.401747,0.135724 -0.498651,0.234358 -0.121432,0.123652 -0.513231,-0.03716 -0.614828,-0.08458 -0.166357,-0.07764 0.01288,-0.505045 0.151114,-0.645713 0.209267,-0.213046 0.03597,-0.358598 0.456494,-0.300748 0.142977,0.01967 0.212826,-0.157504 0.404044,-0.247377 0.15716,-0.07385 0.538384,0.07406 0.709423,0.09759 0.12105,0.01666 0.438279,0.189013 0.599419,0.264231 0.26719,0.124724 0.217864,0.244988 0.247801,0.45823 0.0375,0.266765 -0.313861,0.60421 -0.319206,0.652889 z"
       id="path13952"
       sodipodi:nodetypes="csssssssssss"
       inkscape:connector-curvature="0" />
    <path
       style="display:inline;fill:#ececec;fill-opacity:1;fill-rule:evenodd;stroke:#000000;stroke-width:0.675509;stroke-linecap:round;stroke-linejoin:round;stroke-miterlimit:4;stroke-dasharray:none;stroke-opacity:1"
       d="m 25.26122,16.647417 c 0.0077,0.176753 -0.205159,0.1117 -0.291884,0.08965 -0.118754,-0.02756 -0.224267,-0.110348 -0.311336,-0.201123 -0.223706,-0.04934 -0.452221,-0.05457 -0.67705,-0.09165 -0.26798,-0.0027 -0.532989,0.05338 -0.766083,0.186029 -0.160107,0.07902 -0.206103,-0.196352 -0.204381,-0.337103 9.44e-4,-0.220359 0.162467,-0.358039 0.219611,-0.552745 0.04847,-0.146741 0.148411,-0.276531 0.282905,-0.288177 0.258822,-0.03741 0.517835,0.03726 0.777308,0.02268 0.103319,0.04684 0.187595,0.157619 0.302943,0.172189 0.148844,0.03063 0.289091,-0.07832 0.439006,-0.05251 0.123856,0.01455 0.253184,0.03522 0.364208,0.100807 0.147352,0.08706 0.183067,0.484643 0.191588,0.664155 0.04158,0.16947 -0.04299,0.328422 -0.192736,0.299924 -0.0449,7.78e-4 -0.0898,-0.0033 -0.134073,-0.01212 z"
       id="path13954"
       sodipodi:nodetypes="cccccccccccsccc"
       inkscape:connector-curvature="0" />
    <path
       sodipodi:nodetypes="ccccsc"
       id="path5360-8"
       d="m 27.543219,19.058607 c 0,0 1.598073,2.001506 2.483637,2.571473 1.443757,1.199219 0.490347,2.211043 -0.725559,2.136596 -1.020989,-4.95e-4 -2.03986,0.403343 -3.591045,-0.560947 -0.781631,-0.485903 -0.545565,-1.257414 -0.367907,-1.772586 0.119264,-0.345902 0.763201,-0.731309 1.287771,-0.323637"
       style="display:inline;overflow:visible;visibility:visible;fill:#fdddca;fill-opacity:1;fill-rule:evenodd;stroke:#000000;stroke-width:0.592764;stroke-linecap:round;stroke-linejoin:round;stroke-miterlimit:4;stroke-dasharray:none;stroke-dashoffset:0;stroke-opacity:1;marker:none;enable-background:accumulate"
       inkscape:connector-curvature="0" />
    <ellipse
       ry="0.50423783"
       rx="0.25211892"
       cy="18.473948"
       cx="24.792784"
       style="color:#000000;display:inline;overflow:visible;visibility:visible;fill:#ffffff;fill-opacity:1;fill-rule:nonzero;stroke:none;stroke-width:0.592764;marker:none;enable-background:accumulate"
       id="path8238" />
    <ellipse
       ry="0.50423783"
       rx="0.25211892"
       cy="18.852127"
       cx="24.603716"
       style="color:#000000;display:inline;overflow:visible;visibility:visible;fill:#ffffff;fill-opacity:1;fill-rule:nonzero;stroke:none;stroke-width:0.592764;marker:none;enable-background:accumulate"
       id="path8238-3" />
    <ellipse
       ry="0.50423783"
       rx="0.25211892"
       cy="18.471413"
       cx="29.114136"
       style="color:#000000;display:inline;overflow:visible;visibility:visible;fill:#ffffff;fill-opacity:1;fill-rule:nonzero;stroke:none;stroke-width:0.592764;marker:none;enable-background:accumulate"
       id="path8238-6" />
    <ellipse
       ry="0.50423783"
       rx="0.25211892"
       cy="18.84959"
       cx="28.925039"
       style="color:#000000;display:inline;overflow:visible;visibility:visible;fill:#ffffff;fill-opacity:1;fill-rule:nonzero;stroke:none;stroke-width:0.592764;marker:none;enable-background:accumulate"
       id="path8238-3-5" />
    <path
       style="color:#000000;display:inline;overflow:visible;visibility:visible;fill:#fdddca;fill-opacity:1;fill-rule:nonzero;stroke:#000000;stroke-width:0.592764;marker:none;enable-background:accumulate"
       d="m 40.524854,24.06766 c 0.447336,0.06498 0.718071,0.757704 0.615249,1.556739 1.189834,-0.44009 2.62766,-1.133767 3.337325,0.337282 0.709666,1.471048 -0.839707,2.374091 -2.132835,2.998737 -1.293115,0.624645 -2.687662,0.417319 -3.113147,-0.464658 -0.269396,-0.558429 -0.08444,-1.253579 0.414362,-1.846512 -0.03737,-0.384706 -0.03941,-0.859207 0.02972,-1.339651 0.06123,-0.526806 0.206741,-1.241357 0.849261,-1.241937 z"
       id="path10976-6"
       sodipodi:nodetypes="cczssccc"
       inkscape:connector-curvature="0" />
    <path
       style="display:inline;fill:#ffffff;fill-opacity:1;stroke:#b3b3b3;stroke-width:0.677336;stroke-linecap:round;stroke-linejoin:round;stroke-miterlimit:4;stroke-opacity:1"
       d="m 39.066377,26.500478 c 0.398431,0.340727 0.613833,0.992953 0.776313,1.453519 0.145489,0.43959 0.437182,0.813475 0.570375,1.272336 0.03138,0.250205 0.04413,0.516195 -0.07857,0.7502 -0.373609,0.19915 -1.164871,-0.02628 -1.404024,-0.310852 -0.532032,-0.338093 -0.603629,-0.560687 -0.691884,-1.056756 -0.414797,-0.723523 -0.348009,-1.034135 -0.350317,-1.813461 0.271564,-0.12908 0.913549,-0.441515 1.17806,-0.294986 z"
       id="path5415-0"
       sodipodi:nodetypes="cccccccc"
       inkscape:connector-curvature="0" />
    <path
       style="color:#000000;display:inline;overflow:visible;visibility:visible;fill:#ffffff;fill-opacity:1;fill-rule:nonzero;stroke:#b3b3b3;stroke-width:0.592764;stroke-linecap:round;stroke-linejoin:round;stroke-miterlimit:4;stroke-dasharray:none;stroke-dashoffset:0;stroke-opacity:1;marker:none;enable-background:accumulate"
       d="m 19.465055,38.580228 c 2.870346,0.813263 8.084796,1.004618 10.572413,0.191356 l 0.191359,0.813262 c -2.48763,0.861101 -5.549321,1.148136 -11.050809,-0.09568 z"
       id="path11006"
       sodipodi:nodetypes="ccccc"
       inkscape:connector-curvature="0" />
    <rect
       style="color:#000000;display:inline;overflow:visible;visibility:visible;fill:#ececec;fill-opacity:1;fill-rule:nonzero;stroke:#4d4d4d;stroke-width:0.592764;stroke-linecap:round;stroke-linejoin:round;stroke-miterlimit:4;stroke-dasharray:none;stroke-dashoffset:0;stroke-opacity:1;marker:none;enable-background:accumulate"
       id="rect11008"
       width="2.6789837"
       height="2.0092378"
       x="24.296799"
       y="38.83213" />
    <path
       style="color:#000000;display:inline;overflow:visible;visibility:visible;fill:#ffffff;fill-opacity:1;fill-rule:nonzero;stroke:#4d4d4d;stroke-width:0.592764;stroke-linecap:round;stroke-linejoin:round;stroke-miterlimit:4;stroke-dasharray:none;stroke-dashoffset:0;stroke-opacity:1;marker:none;enable-background:accumulate"
       d="m 25.25358,28.151329 0.239191,3.061695"
       id="path11010"
       inkscape:connector-curvature="0" />
    <path
       style="color:#000000;display:inline;overflow:visible;visibility:visible;fill:#ffffff;fill-opacity:1;fill-rule:nonzero;stroke:#4d4d4d;stroke-width:0.592764;stroke-linecap:round;stroke-linejoin:round;stroke-miterlimit:4;stroke-dasharray:none;stroke-dashoffset:0;stroke-opacity:1;marker:none;enable-background:accumulate"
       d="m 27.549851,28.103488 0.191346,3.39657"
       id="path11012"
       inkscape:connector-curvature="0" />
    <path
       style="color:#000000;display:inline;overflow:visible;visibility:visible;fill:#ffffff;fill-opacity:1;fill-rule:nonzero;stroke:#4d4d4d;stroke-width:0.592764;stroke-linecap:round;stroke-linejoin:round;stroke-miterlimit:4;stroke-dasharray:none;stroke-dashoffset:0;stroke-opacity:1;marker:none;enable-background:accumulate"
       d="m 29.463407,27.816454 0.143512,3.013856"
       id="path11014"
       sodipodi:nodetypes="cc"
       inkscape:connector-curvature="0" />
  </g>
</svg>
